<svg id="_32_Confused" enable-background="new 0 0 512 512" viewBox="0 0 512 512" xmlns="http://www.w3.org/2000/svg" xmlns:xlink="http://www.w3.org/1999/xlink"><linearGradient id="SVGID_1_" gradientTransform="matrix(.966 -.259 -.259 -.966 109.805 554.048)" gradientUnits="userSpaceOnUse" x1="42.534" x2="387.39" y1="425.875" y2="81.019"><stop offset="0" stop-color="#fef48b"/><stop offset=".1646" stop-color="#fdf286"/><stop offset=".3352" stop-color="#fdee7a"/><stop offset=".5086" stop-color="#fce765"/><stop offset=".6839" stop-color="#fcde48"/><stop offset=".8589" stop-color="#fbd123"/><stop offset="1" stop-color="#fac600"/></linearGradient><linearGradient id="lg1"><stop offset="0" stop-color="#fe9738" stop-opacity="0"/><stop offset=".1207" stop-color="#fe9738" stop-opacity=".016"/><stop offset=".2459" stop-color="#fe9738" stop-opacity=".065"/><stop offset=".3731" stop-color="#fe9738" stop-opacity=".147"/><stop offset=".5018" stop-color="#fe9738" stop-opacity=".262"/><stop offset=".6317" stop-color="#fe9738" stop-opacity=".41"/><stop offset=".7625" stop-color="#fe9738" stop-opacity=".59"/><stop offset=".8916" stop-color="#fe9738" stop-opacity=".8"/><stop offset="1" stop-color="#fe9738"/></linearGradient><linearGradient id="SVGID_00000122713896554873917410000002543184688083585968_" gradientTransform="matrix(.966 -.259 -.259 -.966 109.805 554.048)" gradientUnits="userSpaceOnUse" x1="211.984" x2="192.233" xlink:href="#lg1" y1="184.994" y2="-8.562"/><linearGradient id="SVGID_00000096773903288704471510000017050850285484490422_" gradientTransform="matrix(.966 -.259 -.259 -.966 109.805 554.048)" gradientUnits="userSpaceOnUse" x1="240.584" x2="474.958" xlink:href="#lg1" y1="253.245" y2="287.48"/><linearGradient id="SVGID_00000061441956838933646150000003915027340731423159_" gradientTransform="matrix(.966 -.259 -.259 -.966 109.805 554.048)" gradientUnits="userSpaceOnUse" x1="344.061" x2="407.375" y1="124.348" y2="61.033"><stop offset="0" stop-color="#fef48b" stop-opacity="0"/><stop offset=".1207" stop-color="#fef38b" stop-opacity=".016"/><stop offset=".2459" stop-color="#fef38d" stop-opacity=".065"/><stop offset=".3731" stop-color="#fef390" stop-opacity=".147"/><stop offset=".5018" stop-color="#fef294" stop-opacity=".262"/><stop offset=".6317" stop-color="#fef299" stop-opacity=".41"/><stop offset=".7625" stop-color="#fef19f" stop-opacity=".59"/><stop offset=".8916" stop-color="#fef0a7" stop-opacity=".8"/><stop offset="1" stop-color="#fef0ae"/></linearGradient><linearGradient id="SVGID_00000076564461525693386470000004204364918610928055_" gradientTransform="matrix(.966 -.259 -.259 -.966 109.805 554.048)" gradientUnits="userSpaceOnUse" x1="216.856" x2="77.284" y1="252.204" y2="452.343"><stop offset="0" stop-color="#fef48b" stop-opacity="0"/><stop offset=".1205" stop-color="#fef48b" stop-opacity=".016"/><stop offset=".2454" stop-color="#fef48e" stop-opacity=".065"/><stop offset=".3724" stop-color="#fef493" stop-opacity=".147"/><stop offset=".5008" stop-color="#fef49a" stop-opacity=".261"/><stop offset=".6304" stop-color="#fef4a3" stop-opacity=".408"/><stop offset=".761" stop-color="#fef4ad" stop-opacity=".588"/><stop offset=".8898" stop-color="#fef4ba" stop-opacity=".797"/><stop offset="1" stop-color="#fff5c6"/></linearGradient><linearGradient id="SVGID_00000004544003970507959390000013184847706387720114_" gradientTransform="matrix(.966 -.259 -.259 -.966 109.805 554.048)" gradientUnits="userSpaceOnUse" x1="108.612" x2="108.612" xlink:href="#lg1" y1="488.511" y2="332.562"/><linearGradient id="SVGID_00000093885526971060289570000003550423263209694896_" gradientTransform="matrix(-.871 .492 -.492 -.871 1574.363 16.869)" gradientUnits="userSpaceOnUse" x1="1082.871" x2="1129.104" xlink:href="#lg1" y1="638.05" y2="561.456"/><linearGradient id="SVGID_00000046307491717461040110000015109011573243598517_" gradientTransform="matrix(.966 -.259 -.259 -.966 109.805 554.048)" gradientUnits="userSpaceOnUse" x1="252.253" x2="279.816" y1="151.306" y2="72.671"><stop offset="0" stop-color="#ca2e43"/><stop offset=".2024" stop-color="#c52e41"/><stop offset=".412" stop-color="#b92e3d"/><stop offset=".6251" stop-color="#a43037"/><stop offset=".8391" stop-color="#87312e"/><stop offset="1" stop-color="#6d3326"/></linearGradient><linearGradient id="lg2"><stop offset="0" stop-color="#6d3326" stop-opacity="0"/><stop offset=".2414" stop-color="#6a3124" stop-opacity=".063"/><stop offset=".4916" stop-color="#622e1f" stop-opacity=".252"/><stop offset=".7457" stop-color="#542816" stop-opacity=".565"/><stop offset="1" stop-color="#42210b"/></linearGradient><linearGradient id="SVGID_00000029017351928474649660000014679716953718654652_" gradientTransform="matrix(.966 -.259 -.259 -.966 109.805 554.048)" gradientUnits="userSpaceOnUse" x1="274.97" x2="223.898" xlink:href="#lg2" y1="99.368" y2="133.416"/><linearGradient id="SVGID_00000178179000950550445860000010161670395325966995_" gradientTransform="matrix(.966 -.259 -.259 -.966 109.805 554.048)" gradientUnits="userSpaceOnUse" x1="274.799" x2="260.206" xlink:href="#lg2" y1="81.206" y2="154.774"/><linearGradient id="SVGID_00000108307270604069704910000010858917407424281776_" gradientTransform="matrix(.966 -.259 -.259 -.966 109.805 554.048)" gradientUnits="userSpaceOnUse" x1="282.984" x2="297.576" xlink:href="#lg2" y1="117.322" y2="152.18"/><linearGradient id="lg3"><stop offset="0" stop-color="#766e6e"/><stop offset=".2493" stop-color="#716b6b"/><stop offset=".5076" stop-color="#656464"/><stop offset=".769" stop-color="#505757"/><stop offset="1" stop-color="#384949"/></linearGradient><linearGradient id="SVGID_00000008118767132137137590000016043197979674811017_" gradientTransform="matrix(.966 -.259 -.259 -.966 109.805 554.048)" gradientUnits="userSpaceOnUse" x1="90.287" x2="141.601" xlink:href="#lg3" y1="327.697" y2="276.384"/><linearGradient id="lg4"><stop offset="0" stop-color="#464646" stop-opacity="0"/><stop offset=".6727" stop-color="#252529" stop-opacity=".463"/><stop offset="1" stop-color="#000009"/></linearGradient><linearGradient id="SVGID_00000025442811783801459280000014643306033249774997_" gradientTransform="matrix(.966 -.259 -.259 -.966 109.805 554.048)" gradientUnits="userSpaceOnUse" x1="169.326" x2="73.362" xlink:href="#lg4" y1="280.592" y2="316.155"/><linearGradient id="SVGID_00000133501113265478414550000002595752948477736346_" gradientTransform="matrix(.966 -.259 -.259 -.966 109.805 554.048)" gradientUnits="userSpaceOnUse" x1="142.74" x2="100.402" xlink:href="#lg4" y1="248.198" y2="337.953"/><linearGradient id="SVGID_00000147218944544951601510000016201670829253503360_" gradientTransform="matrix(.966 -.259 -.259 -.966 109.805 554.048)" gradientUnits="userSpaceOnUse" x1="289.815" x2="341.129" xlink:href="#lg3" y1="327.697" y2="276.384"/><linearGradient id="SVGID_00000158732062433651612780000003144543521088262016_" gradientTransform="matrix(.966 -.259 -.259 -.966 109.805 554.048)" gradientUnits="userSpaceOnUse" x1="368.854" x2="272.89" xlink:href="#lg4" y1="280.592" y2="316.155"/><linearGradient id="SVGID_00000114796390694073681550000014314268224192655802_" gradientTransform="matrix(.966 -.259 -.259 -.966 109.805 554.048)" gradientUnits="userSpaceOnUse" x1="342.268" x2="299.93" xlink:href="#lg4" y1="248.198" y2="337.953"/><g><g><path d="m156.9 26 70-18.8c112.8-30.2 228.8 36.8 259.1 149.7l18.8 70c30.2 112.8-36.8 228.8-149.7 259.1l-70 18.8c-112.8 30.2-228.8-36.8-259.1-149.7l-18.8-70c-30.2-112.8 36.8-228.8 149.7-259.1z" fill="url(#SVGID_1_)"/><path d="m7.3 285.1 18.8 70c30.2 112.9 146.2 179.9 259 149.6l70-18.8c112.9-30.2 179.9-146.2 149.6-259l-18.8-70c-.6-2.2-1.2-4.4-1.9-6.6l-478.4 128.1c.5 2.3 1.1 4.5 1.7 6.7z" fill="url(#SVGID_00000122713896554873917410000002543184688083585968_)"/><path d="m226.9 7.3-70 18.8c-8 2.2-15.8 4.8-23.4 7.7l127.5 476c8-1.2 16.1-2.8 24.1-5l70-18.8c112.9-30.3 179.9-146.3 149.6-259.1l-18.8-70c-30.2-112.9-146.2-179.9-259-149.6z" fill="url(#SVGID_00000096773903288704471510000017050850285484490422_)"/><path d="m313.8 2.5-248.5 430.3c50.9 63.4 136.2 94.3 219.8 71.9l70-18.8c112.9-30.2 179.9-146.2 149.6-259l-18.8-70c-22.3-83.6-91.8-142-172.1-154.4z" fill="url(#SVGID_00000061441956838933646150000003915027340731423159_)"/><path d="m167.6 50.9 62.4-16.7c100.6-27 204.1 32.8 231 133.4l16.7 62.4c27 100.6-32.8 204.1-133.4 231l-62.3 16.8c-100.6 27-204.1-32.8-231-133.4l-16.8-62.4c-26.9-100.7 32.8-204.1 133.4-231.1z" fill="url(#SVGID_00000076564461525693386470000004204364918610928055_)"/><g><path d="m165.7 131.2c-3.8-6.7-12.4-9-18.9-4.9-1.5 1-3.1 1.9-4.7 2.8-26.9 15.2-57 18.1-82.4 10.3-3.8-1.1-6.3 3.7-3.3 6.2 26.9 21.8 65.5 26.2 97.5 8.1 2.7-1.5 5.2-3.1 7.7-4.9 5.7-3.9 7.5-11.5 4.1-17.6z" fill="url(#SVGID_00000004544003970507959390000013184847706387720114_)"/><path d="m261.5 64.1c3.8 6.7 12.4 9 18.9 4.9 1.5-1 3.1-1.9 4.7-2.8 26.9-15.2 57-18.1 82.4-10.3 3.8 1.1 6.3-3.7 3.3-6.2-26.9-21.8-65.5-26.2-97.5-8.1-2.7 1.5-5.2 3.1-7.7 4.9-5.8 3.9-7.5 11.6-4.1 17.6z" fill="url(#SVGID_00000093885526971060289570000003550423263209694896_)"/></g></g><g><path d="m351.8 402.7c12.5-3.3 25.1-2.7 36.5 1 14 4.6 27.5-7.8 23.9-22.1-.1-.3-.2-.6-.3-.9-9.1-33.4-43.6-53.5-77.1-45-34.6 8.7-55.2 44-46 78.3.1.2.1.5.2.7 4 14.1 21.9 18.1 31.7 7.1 8-8.9 18.6-15.7 31.1-19.1z" fill="url(#SVGID_00000046307491717461040110000015109011573243598517_)"/><path d="m351.8 402.7c12.5-3.3 25.1-2.7 36.5 1 14 4.6 27.5-7.8 23.9-22.1-.1-.3-.2-.6-.3-.9-9.1-33.4-43.6-53.5-77.1-45-34.6 8.7-55.2 44-46 78.3.1.2.1.5.2.7 4 14.1 21.9 18.1 31.7 7.1 8-8.9 18.6-15.7 31.1-19.1z" fill="url(#SVGID_00000029017351928474649660000014679716953718654652_)"/><path d="m351.8 402.7c12.5-3.3 25.1-2.7 36.5 1 14 4.6 27.5-7.8 23.9-22.1-.1-.3-.2-.6-.3-.9-9.1-33.4-43.6-53.5-77.1-45-34.6 8.7-55.2 44-46 78.3.1.2.1.5.2.7 4 14.1 21.9 18.1 31.7 7.1 8-8.9 18.6-15.7 31.1-19.1z" fill="url(#SVGID_00000178179000950550445860000010161670395325966995_)"/><path d="m351.8 402.7c12.5-3.3 25.1-2.7 36.5 1 14 4.6 27.5-7.8 23.9-22.1-.1-.3-.2-.6-.3-.9-9.1-33.4-43.6-53.5-77.1-45-34.6 8.7-55.2 44-46 78.3.1.2.1.5.2.7 4 14.1 21.9 18.1 31.7 7.1 8-8.9 18.6-15.7 31.1-19.1z" fill="url(#SVGID_00000108307270604069704910000010858917407424281776_)"/></g><g><g><path d="m135.2 190.5c24.1-6.5 48.9 7.9 55.4 32 6.5 24.1-7.9 48.9-32 55.4-24.1 6.5-48.9-7.9-55.4-32-6.5-24.2 7.8-49 32-55.4z" fill="url(#SVGID_00000008118767132137137590000016043197979674811017_)"/><path d="m135.2 190.5c24.1-6.5 48.9 7.9 55.4 32 6.5 24.1-7.9 48.9-32 55.4-24.1 6.5-48.9-7.9-55.4-32-6.5-24.2 7.8-49 32-55.4z" fill="url(#SVGID_00000025442811783801459280000014643306033249774997_)"/><path d="m135.2 190.5c24.1-6.5 48.9 7.9 55.4 32 6.5 24.1-7.9 48.9-32 55.4-24.1 6.5-48.9-7.9-55.4-32-6.5-24.2 7.8-49 32-55.4z" fill="url(#SVGID_00000133501113265478414550000002595752948477736346_)"/></g><g><path d="m327.9 138.8c24.1-6.5 48.9 7.9 55.4 32 6.5 24.1-7.9 48.9-32 55.4-24.1 6.5-48.9-7.9-55.4-32-6.5-24.1 7.9-48.9 32-55.4z" fill="url(#SVGID_00000147218944544951601510000016201670829253503360_)"/><path d="m327.9 138.8c24.1-6.5 48.9 7.9 55.4 32 6.5 24.1-7.9 48.9-32 55.4-24.1 6.5-48.9-7.9-55.4-32-6.5-24.1 7.9-48.9 32-55.4z" fill="url(#SVGID_00000158732062433651612780000003144543521088262016_)"/><path d="m327.9 138.8c24.1-6.5 48.9 7.9 55.4 32 6.5 24.1-7.9 48.9-32 55.4-24.1 6.5-48.9-7.9-55.4-32-6.5-24.1 7.9-48.9 32-55.4z" fill="url(#SVGID_00000114796390694073681550000014314268224192655802_)"/></g></g></g></svg>