<svg id="Capa_1" enable-background="new 0 0 512 512" viewBox="0 0 512 512" xmlns="http://www.w3.org/2000/svg" xmlns:xlink="http://www.w3.org/1999/xlink"><linearGradient id="SVGID_1_" gradientUnits="userSpaceOnUse" x1="149.811" x2="447.28" y1="231.661" y2="426.578"><stop offset="0" stop-color="#5a5a5a"/><stop offset="1" stop-color="#444"/></linearGradient><linearGradient id="lg1"><stop offset="0" stop-color="#433f43" stop-opacity="0"/><stop offset="1" stop-color="#1a1a1a"/></linearGradient><linearGradient id="SVGID_00000026865947468871259070000017249922969929074574_" gradientUnits="userSpaceOnUse" x1="255.136" x2="274.61" xlink:href="#lg1" y1="183.332" y2="202.806"/><linearGradient id="SVGID_00000019671178356283550360000015411511345905213620_" gradientUnits="userSpaceOnUse" x1="246.841" x2="223.885" xlink:href="#lg1" y1="210.034" y2="232.99"/><linearGradient id="SVGID_00000033333903268358397760000013338040346385042332_" gradientUnits="userSpaceOnUse" x1="260.112" x2="275.506" xlink:href="#lg1" y1="461.826" y2="411.116"/><linearGradient id="SVGID_00000183942860307288811400000011535034933672771974_" gradientUnits="userSpaceOnUse" x1="282.727" x2="279.105" xlink:href="#lg1" y1="485.442" y2="504.005"/><linearGradient id="SVGID_00000094591398494966659580000008862088743352801977_" gradientUnits="userSpaceOnUse" x1="356.242" x2="386.577" xlink:href="#lg1" y1="465.361" y2="478.039"/><linearGradient id="lg2"><stop offset="0" stop-color="#b3dafe"/><stop offset="1" stop-color="#0182fc"/></linearGradient><linearGradient id="SVGID_00000015321363253133221280000002087853100515383936_" gradientUnits="userSpaceOnUse" x1="204.429" x2="204.428" xlink:href="#lg2" y1="155.283" y2="155.284"/><linearGradient id="SVGID_00000025417830359188353500000006329426058278407611_" gradientUnits="userSpaceOnUse" x1="235.002" x2="182.845" xlink:href="#lg2" y1="225.523" y2="277.68"/><linearGradient id="lg3"><stop offset="0" stop-color="#314dc9" stop-opacity="0"/><stop offset=".2761" stop-color="#304bc4" stop-opacity=".276"/><stop offset=".5628" stop-color="#2b45b8" stop-opacity=".563"/><stop offset=".8535" stop-color="#243ba3" stop-opacity=".854"/><stop offset="1" stop-color="#1f3596"/></linearGradient><linearGradient id="SVGID_00000179630586040889204370000006188699349638626206_" gradientUnits="userSpaceOnUse" x1="236.797" x2="282.058" xlink:href="#lg3" y1="252.017" y2="286.09"/><linearGradient id="SVGID_00000103978691747186028750000017689069811466876544_" gradientTransform="matrix(.707 .707 -.707 .707 255.766 -105.474)" gradientUnits="userSpaceOnUse" x1="218.904" x2="271.539" xlink:href="#lg2" y1="249.992" y2="410.949"/><linearGradient id="SVGID_00000039093392642645337780000009156955624604139174_" gradientTransform="matrix(.707 .707 -.707 .707 255.766 -105.474)" gradientUnits="userSpaceOnUse" x1="351.256" x2="504.585" xlink:href="#lg3" y1="317.804" y2="313.227"/><linearGradient id="SVGID_00000015332696778321207010000003395171094610096799_" gradientTransform="matrix(.707 .707 -.707 .707 255.766 -105.474)" gradientUnits="userSpaceOnUse" x1="223.912" x2="232.303" xlink:href="#lg3" y1="343.987" y2="418.744"/><linearGradient id="SVGID_00000053516288530987575910000010069028008140536713_" gradientTransform="matrix(.707 .707 -.707 .707 255.766 -105.474)" gradientUnits="userSpaceOnUse" x1="22.683" x2="108.883" xlink:href="#lg2" y1="185.014" y2="279.605"/><linearGradient id="SVGID_00000065051037664537568570000001548650891694102691_" gradientUnits="userSpaceOnUse" x1="155.978" x2="110.208" xlink:href="#lg2" y1="74.983" y2="129.143"/><linearGradient id="SVGID_00000140001058300530973330000000075475715343649690_" gradientUnits="userSpaceOnUse" x1="121.953" x2="74.658" xlink:href="#lg3" y1="66.631" y2="19.335"/><linearGradient id="SVGID_00000110437842239332324700000009986590250045828495_" gradientTransform="matrix(.707 .707 -.707 .707 255.766 -105.474)" gradientUnits="userSpaceOnUse" x1="352.474" x2="418.84" xlink:href="#lg2" y1="184.595" y2="279.949"/><linearGradient id="SVGID_00000010292080405829786800000010393026541815180932_" gradientTransform="matrix(.707 -.707 .707 .707 -106.273 255.435)" gradientUnits="userSpaceOnUse" x1="320.821" x2="258.269" xlink:href="#lg2" y1="380.969" y2="380.969"/><linearGradient id="SVGID_00000172426326249498640210000017921795118132435356_" gradientUnits="userSpaceOnUse" x1="369.479" x2="366.428" xlink:href="#lg3" y1="280.84" y2="230.493"/><linearGradient id="SVGID_00000057109497946843289930000018345287930142624406_" gradientUnits="userSpaceOnUse" x1="401.38" x2="441.047" xlink:href="#lg3" y1="358.432" y2="400.387"/><linearGradient id="SVGID_00000160906225804773371450000007921905031742913712_" gradientUnits="userSpaceOnUse" x1="413.73" x2="414.68" xlink:href="#lg3" y1="386.936" y2="319.451"/><linearGradient id="SVGID_00000039833009610309795800000016157549245164330882_" gradientUnits="userSpaceOnUse" x1="392.131" x2="487.485" y1="214.483" y2="309.836"><stop offset="0" stop-color="#ffa1ae"/><stop offset="1" stop-color="#ff4565"/></linearGradient><linearGradient id="lg4"><stop offset="0" stop-color="#fe0364" stop-opacity="0"/><stop offset=".2343" stop-color="#f90362" stop-opacity=".234"/><stop offset=".5173" stop-color="#ea035b" stop-opacity=".517"/><stop offset=".8243" stop-color="#d20250" stop-opacity=".824"/><stop offset="1" stop-color="#c00148"/></linearGradient><linearGradient id="SVGID_00000003799419737573343410000017814616203670674097_" gradientUnits="userSpaceOnUse" x1="426.737" x2="420.345" xlink:href="#lg4" y1="262.401" y2="333.721"/><linearGradient id="SVGID_00000059284245751784160560000014808610067078422456_" gradientUnits="userSpaceOnUse" x1="443.82" x2="494.282" xlink:href="#lg4" y1="259.885" y2="290.499"/><g><g><g><path d="m335.066 512h-7.918c-34.806 0-67.684-10.204-95.08-29.51-25.527-17.989-45.476-43.082-57.689-72.566-12.213-29.485-15.851-61.334-10.521-92.104 5.721-33.023 21.753-63.487 46.365-88.099l87.102-87.102c4.651-4.651 12.191-4.651 16.842 0s4.651 12.191 0 16.842l-87.102 87.102c-41.249 41.249-53.005 100.353-30.682 154.247 22.324 53.894 72.43 87.374 130.764 87.374h7.918c19.607 0 31.85-12.691 36.769-24.569 4.92-11.877 5.237-29.508-8.627-43.372l16.842-16.842c18.54 18.54 23.824 45.105 13.79 69.329-10.033 24.222-32.554 39.27-58.773 39.27z" fill="url(#SVGID_1_)"/></g><path d="m210.224 229.721c-1.412 1.412-2.792 2.845-4.147 4.295l16.857 16.857c1.345-1.456 2.718-2.896 4.132-4.311l87.102-87.102c4.651-4.651 4.651-12.191 0-16.842s-12.191-4.651-16.842 0z" fill="url(#SVGID_00000026865947468871259070000017249922969929074574_)"/><path d="m252.369 187.576-42.145 42.145c-1.412 1.412-2.792 2.845-4.147 4.295l16.857 16.857c1.345-1.456 2.718-2.896 4.132-4.311l42.145-42.145z" fill="url(#SVGID_00000019671178356283550360000015411511345905213620_)"/><path d="m162.037 332.359c-2.132 26.16 2.044 52.702 12.342 77.565 12.213 29.484 32.161 54.577 57.689 72.566 27.396 19.306 60.274 29.51 95.08 29.51h7.918c26.219 0 48.74-15.048 58.774-39.271 10.034-24.224 4.75-50.789-13.79-69.329l-16.842 16.842c13.864 13.864 13.547 31.495 8.627 43.372-4.919 11.878-17.163 24.569-36.769 24.569h-7.918c-58.335 0-108.441-33.48-130.764-87.374-9.307-22.469-12.669-45.841-10.461-68.45z" fill="url(#SVGID_00000033333903268358397760000013338040346385042332_)"/><path d="m371.835 463.614c-4.919 11.878-17.163 24.569-36.769 24.569h-7.918c-47.336 0-89.252-22.047-115.303-59.157h-28.1c12.083 21.25 28.513 39.503 48.324 53.464 27.396 19.306 60.274 29.51 95.08 29.51h7.918c26.219 0 48.74-15.048 58.774-39.271 5.993-14.469 6.517-29.772 2.02-43.703h-25.917c6.803 11.968 5.817 25.109 1.891 34.588z" fill="url(#SVGID_00000183942860307288811400000011535034933672771974_)"/><path d="m363.208 420.242c13.864 13.864 13.547 31.495 8.627 43.372-4.919 11.878-17.163 24.569-36.769 24.569h-7.918c-16.466 0-32.275-2.67-46.99-7.711v25.005c15.007 4.31 30.789 6.524 46.99 6.524h7.918c26.219 0 48.74-15.048 58.774-39.271 10.034-24.224 4.75-50.789-13.79-69.329z" fill="url(#SVGID_00000094591398494966659580000008862088743352801977_)"/><g><g><path d="m204.429 155.283-.001.001z" fill="url(#SVGID_00000015321363253133221280000002087853100515383936_)"/><path d="m243.199 256.097-38.77-38.77c-17.132-17.132-17.133-44.909-.001-62.042l-31.02 31.02-37.332 37.332 100.814 100.814 37.332-37.332 31.022-31.022c-17.134 17.132-44.912 17.132-62.045 0z" fill="url(#SVGID_00000025417830359188353500000006329426058278407611_)"/><path d="m243.199 256.097-38.77-38.77c-17.132-17.132-17.133-44.909-.001-62.042l-31.02 31.02-37.332 37.332 100.814 100.814 37.332-37.332 31.022-31.022c-17.134 17.132-44.912 17.132-62.045 0z" fill="url(#SVGID_00000179630586040889204370000006188699349638626206_)"/></g><g><g><path d="m54.126 25.733-31.052 42.63c-10.502 14.42-17.79 30.982-20.919 48.544-14.997 84.177 50.668 147.401 122.365 219.098s134.921 137.362 219.098 122.365c17.563-3.129 34.124-10.416 48.544-20.919l42.631-31.052-149.229-149.228-19.622 26.939c-11.087 15.222-33.113 17.043-46.538 3.836-14.708-14.47-32.355-32.117-46.825-46.825-13.207-13.425-11.386-35.45 3.836-46.538l26.939-19.622-149.228-149.228c.001 0 .001 0 0 0z" fill="url(#SVGID_00000103978691747186028750000017689069811466876544_)"/></g><path d="m266.037 283.981c-11.137 15.29-33.263 17.119-46.747 3.852-2.023-1.99-4.1-4.04-6.217-6.133l-71.425 71.425c64.741 64.485 124.334 118.836 201.541 105.321 17.717-3.101 34.435-10.405 48.973-20.995l42.631-31.052-149.229-149.228z" fill="url(#SVGID_00000039093392642645337780000009156955624604139174_)"/><path d="m238.959 306.942c-20.42-19.436-65.94-64.956-85.376-85.376l-139.28-139.279c-5.829 10.81-9.984 22.475-12.148 34.621-14.997 84.177 50.668 147.401 122.365 219.098s134.921 137.361 219.098 122.364c12.145-2.164 23.81-6.319 34.621-12.148z" fill="url(#SVGID_00000015332696778321207010000003395171094610096799_)"/><g><path d="m222.657 163.715-15.037 15.037c-13.945 13.945-36.555 13.945-50.5 0l-102.756-102.756c-13.945-13.945-13.945-36.555 0-50.5l15.037-15.037c13.945-13.945 36.555-13.945 50.5 0l102.756 102.756c13.946 13.945 13.946 36.555 0 50.5z" fill="url(#SVGID_00000053516288530987575910000010069028008140536713_)"/><path d="m204.455 144.498-4.635 4.635c-9.246 9.246-24.237 9.246-33.483 0l-82.353-82.354c-9.246-9.246-9.246-24.237 0-33.483l4.635-4.635c9.246-9.246 24.237-9.246 33.483 0l82.353 82.353c9.246 9.247 9.246 24.237 0 33.484z" fill="url(#SVGID_00000065051037664537568570000001548650891694102691_)"/><path d="m204.455 144.498-4.635 4.635c-9.246 9.246-24.237 9.246-33.483 0l-82.353-82.354c-9.246-9.246-9.246-24.237 0-33.483l4.635-4.635c9.246-9.246 24.237-9.246 33.483 0l82.353 82.353c9.246 9.247 9.246 24.237 0 33.484z" fill="url(#SVGID_00000140001058300530973330000000075475715343649690_)"/></g><g><path d="m450.067 391.125-15.037 15.037c-13.945 13.945-36.555 13.945-50.5 0l-102.757-102.757c-13.945-13.945-13.945-36.555 0-50.5l15.037-15.037c13.945-13.945 36.555-13.945 50.5 0l102.756 102.756c13.946 13.946 13.946 36.555.001 50.501z" fill="url(#SVGID_00000110437842239332324700000009986590250045828495_)"/><path d="m431.864 371.907-4.635 4.635c-9.246 9.246-24.237 9.246-33.483 0l-82.353-82.353c-9.246-9.246-9.246-24.237 0-33.483l4.635-4.635c9.246-9.246 24.237-9.246 33.483 0l82.353 82.353c9.246 9.246 9.246 24.237 0 33.483z" fill="url(#SVGID_00000010292080405829786800000010393026541815180932_)"/><path d="m431.864 371.907-4.635 4.635c-9.246 9.246-24.237 9.246-33.483 0l-82.353-82.353c-9.246-9.246-9.246-24.237 0-33.483l4.635-4.635c9.246-9.246 24.237-9.246 33.483 0l82.353 82.353c9.246 9.246 9.246 24.237 0 33.483z" fill="url(#SVGID_00000172426326249498640210000017921795118132435356_)"/><path d="m450.065 391.129-15.035 15.035c-13.943 13.943-36.554 13.943-50.497 0l-65.403-65.403 62.963-68.111 67.971 67.971c13.944 13.944 13.944 36.554.001 50.508z" fill="url(#SVGID_00000057109497946843289930000018345287930142624406_)"/></g></g></g></g><path d="m393.728 284.285-25.413 25.413 81.589 81.589.163-.163c13.945-13.945 13.945-36.555 0-50.5z" fill="url(#SVGID_00000160906225804773371450000007921905031742913712_)"/><g><g><g><circle cx="427.831" cy="250.182" fill="url(#SVGID_00000039833009610309795800000016157549245164330882_)" r="84.169"/><path d="m343.662 250.182c0 46.485 37.684 84.169 84.169 84.169s84.169-37.684 84.169-84.169c0-10.068-1.774-19.719-5.015-28.668h-158.308c-3.241 8.949-5.015 18.601-5.015 28.668z" fill="url(#SVGID_00000003799419737573343410000017814616203670674097_)"/><path d="m368.315 309.699c32.87 32.87 86.163 32.87 119.033 0s32.87-86.163 0-119.033c-7.119-7.119-15.198-12.689-23.817-16.725l-111.94 111.94c4.034 8.62 9.605 16.699 16.724 23.818z" fill="url(#SVGID_00000059284245751784160560000014808610067078422456_)"/></g></g><path d="m398.837 227.675c0-3.976.844-7.501 2.529-10.572 1.687-3.07 3.893-5.663 6.617-7.784 2.724-2.118 5.837-3.739 9.341-4.864 3.502-1.123 7.112-1.686 10.832-1.686 3.718 0 7.393.584 11.026 1.751 3.631 1.167 6.875 2.898 9.73 5.189 2.853 2.292 5.143 5.104 6.875 8.431 1.728 3.331 2.595 7.157 2.595 11.481 0 4.669-.996 8.866-2.984 12.583-1.992 3.72-4.456 7.071-7.395 10.053-2.941 2.984-6.162 5.665-9.664 8.043-3.502 2.38-6.725 4.627-9.664 6.746-2.941 2.12-5.405 4.108-7.393 5.967-1.992 1.861-2.984 3.784-2.984 5.773v1.167h33.986c1.643 0 3.071.865 4.282 2.594 1.21 1.732 1.817 3.762 1.817 6.098 0 2.335-.607 4.41-1.817 6.227-1.212 1.816-2.639 2.724-4.282 2.724h-46.181c-.952 0-1.924-.15-2.918-.454-.994-.302-1.946-.714-2.853-1.233-.909-.519-1.645-1.167-2.206-1.946-.564-.778-.844-1.642-.844-2.595v-12.583c0-3.373 1.015-6.551 3.049-9.535 2.03-2.984 4.56-5.792 7.588-8.431 3.026-2.637 6.291-5.21 9.795-7.719 3.502-2.507 6.765-4.995 9.793-7.46 3.026-2.465 5.555-4.95 7.59-7.459 2.03-2.507 3.047-5.144 3.047-7.913 0-1.037-.173-2.096-.518-3.178-.347-1.08-.909-2.076-1.687-2.983-.778-.908-1.795-1.642-3.047-2.206-1.256-.562-2.789-.843-4.606-.843-2.595 0-4.864.713-6.81 2.14-1.947 1.426-2.92 3.957-2.92 7.589 0 1.903-.952 3.612-2.853 5.124-1.903 1.514-4.498 2.27-7.784 2.27-2.595 0-4.756-.734-6.486-2.206-1.733-1.467-2.596-4.234-2.596-8.3z" fill="#fff"/></g></g><g/><g/><g/><g/><g/><g/><g/><g/><g/><g/><g/><g/><g/><g/><g/></svg>