<svg id="Layer_50" enable-background="new 0 0 512 512" viewBox="0 0 512 512" xmlns="http://www.w3.org/2000/svg" xmlns:xlink="http://www.w3.org/1999/xlink"><linearGradient id="SVGID_1_" gradientTransform="matrix(1 0 0 -1 0 514)" gradientUnits="userSpaceOnUse" x1="185.632" x2="321.276" y1="462.519" y2="91.922"><stop offset="0" stop-color="#eaf6ff"/><stop offset="1" stop-color="#b4d2e2"/></linearGradient><linearGradient id="lg1"><stop offset="0" stop-color="#b3dafe" stop-opacity="0"/><stop offset=".09513374" stop-color="#b1d8fc" stop-opacity=".033"/><stop offset=".2381" stop-color="#abd4fa" stop-opacity=".126"/><stop offset=".4111" stop-color="#a3cdf5" stop-opacity=".277"/><stop offset=".6075" stop-color="#97c3ee" stop-opacity=".487"/><stop offset=".8208" stop-color="#88b7e6" stop-opacity=".752"/><stop offset="1" stop-color="#7bacdf"/></linearGradient><linearGradient id="SVGID_00000103226743015888612450000008011111160264962432_" gradientTransform="matrix(1 0 0 -1 0 514)" gradientUnits="userSpaceOnUse" x1="51.909" x2="64.655" xlink:href="#lg1" y1="432.976" y2="327.533"/><linearGradient id="SVGID_00000023991749190006769960000002195801325006699412_" gradientTransform="matrix(1 0 0 -1 0 514)" gradientUnits="userSpaceOnUse" x1="142.929" x2="155.675" xlink:href="#lg1" y1="432.976" y2="327.533"/><linearGradient id="SVGID_00000168118013175053012320000008235481599656917889_" gradientTransform="matrix(1 0 0 -1 0 514)" gradientUnits="userSpaceOnUse" x1="233.95" x2="246.696" xlink:href="#lg1" y1="432.976" y2="327.533"/><linearGradient id="SVGID_00000171701973541530458940000012290811064859013797_" gradientTransform="matrix(1 0 0 -1 0 514)" gradientUnits="userSpaceOnUse" x1="324.971" x2="337.717" xlink:href="#lg1" y1="432.976" y2="327.533"/><linearGradient id="SVGID_00000004539404311611944510000011443700376586909825_" gradientTransform="matrix(1 0 0 -1 0 514)" gradientUnits="userSpaceOnUse" x1="415.992" x2="428.738" xlink:href="#lg1" y1="432.976" y2="327.533"/><linearGradient id="SVGID_00000011017191137885060080000011403928921164957577_" gradientTransform="matrix(1 0 0 -1 0 514)" gradientUnits="userSpaceOnUse" x1="51.909" x2="64.655" xlink:href="#lg1" y1="377.292" y2="271.848"/><linearGradient id="SVGID_00000161607542261464802910000017172379148864458164_" gradientTransform="matrix(1 0 0 -1 0 514)" gradientUnits="userSpaceOnUse" x1="142.929" x2="155.675" xlink:href="#lg1" y1="377.292" y2="271.848"/><linearGradient id="SVGID_00000030469340175229460570000002564364605176325814_" gradientTransform="matrix(1 0 0 -1 0 514)" gradientUnits="userSpaceOnUse" x1="233.95" x2="246.696" xlink:href="#lg1" y1="377.292" y2="271.848"/><linearGradient id="SVGID_00000136372764588506739310000000021545113724495528_" gradientTransform="matrix(1 0 0 -1 0 514)" gradientUnits="userSpaceOnUse" x1="324.971" x2="337.717" xlink:href="#lg1" y1="377.292" y2="271.848"/><linearGradient id="SVGID_00000022532311835134122620000005052247807033864878_" gradientTransform="matrix(1 0 0 -1 0 514)" gradientUnits="userSpaceOnUse" x1="415.992" x2="428.738" xlink:href="#lg1" y1="377.292" y2="271.848"/><linearGradient id="SVGID_00000154413940220447191250000013522031089089594299_" gradientTransform="matrix(1 0 0 -1 0 514)" gradientUnits="userSpaceOnUse" x1="51.909" x2="64.655" xlink:href="#lg1" y1="321.608" y2="216.164"/><linearGradient id="SVGID_00000155136599232450502480000008365477722265122176_" gradientTransform="matrix(1 0 0 -1 0 514)" gradientUnits="userSpaceOnUse" x1="142.929" x2="155.675" xlink:href="#lg1" y1="321.608" y2="216.164"/><linearGradient id="SVGID_00000147929671865138176830000016748912644709083010_" gradientTransform="matrix(1 0 0 -1 0 514)" gradientUnits="userSpaceOnUse" x1="233.95" x2="246.696" xlink:href="#lg1" y1="321.608" y2="216.164"/><linearGradient id="SVGID_00000060718538693458461110000010981953926667762100_" gradientTransform="matrix(1 0 0 -1 0 514)" gradientUnits="userSpaceOnUse" x1="324.971" x2="337.717" xlink:href="#lg1" y1="321.608" y2="216.164"/><linearGradient id="SVGID_00000173855017729759135200000017780301863987163029_" gradientTransform="matrix(1 0 0 -1 0 514)" gradientUnits="userSpaceOnUse" x1="415.992" x2="428.738" xlink:href="#lg1" y1="321.608" y2="216.164"/><linearGradient id="SVGID_00000026127330096503266170000014185321501854430364_" gradientTransform="matrix(1 0 0 -1 0 514)" gradientUnits="userSpaceOnUse" x1="51.909" x2="64.655" xlink:href="#lg1" y1="265.923" y2="160.48"/><linearGradient id="SVGID_00000129188204826701746560000007432656504689791132_" gradientTransform="matrix(1 0 0 -1 0 514)" gradientUnits="userSpaceOnUse" x1="142.929" x2="155.675" y1="265.923" y2="160.48"><stop offset="0" stop-color="#fd4755"/><stop offset="1" stop-color="#ca2e43"/></linearGradient><linearGradient id="SVGID_00000054963564417109322620000016873452425776285855_" gradientTransform="matrix(1 0 0 -1 0 514)" gradientUnits="userSpaceOnUse" x1="208.545" x2="255.407" xlink:href="#lg1" y1="728.401" y2="340.724"/><linearGradient id="SVGID_00000044896225586231420950000013754330797541162650_" gradientTransform="matrix(1 0 0 -1 0 514)" gradientUnits="userSpaceOnUse" x1="243.14" x2="243.14" xlink:href="#lg1" y1="158.112" y2="106.766"/><linearGradient id="SVGID_00000181072068283490181140000007462433464235472776_" gradientTransform="matrix(1 0 0 -1 0 514)" gradientUnits="userSpaceOnUse" x1="451.737" x2="494.529" xlink:href="#lg1" y1="305.4" y2="305.4"/><linearGradient id="lg2"><stop offset="0" stop-color="#fef0ae"/><stop offset="1" stop-color="#fac600"/></linearGradient><linearGradient id="SVGID_00000001637454735792253460000003743907790263866250_" gradientTransform="matrix(1 0 0 -1 0 514)" gradientUnits="userSpaceOnUse" x1="303.514" x2="386.636" xlink:href="#lg2" y1="210.486" y2="127.364"/><linearGradient id="lg3"><stop offset="0" stop-color="#fe9738" stop-opacity="0"/><stop offset=".1025" stop-color="#fe9738" stop-opacity=".02"/><stop offset=".2265" stop-color="#fe9738" stop-opacity=".078"/><stop offset=".3615" stop-color="#fe9738" stop-opacity=".175"/><stop offset=".5046" stop-color="#fe9738" stop-opacity=".31"/><stop offset=".6539" stop-color="#fe9738" stop-opacity=".483"/><stop offset=".8085" stop-color="#fe9738" stop-opacity=".695"/><stop offset=".9645" stop-color="#fe9738" stop-opacity=".94"/><stop offset="1" stop-color="#fe9738"/></linearGradient><linearGradient id="SVGID_00000155142831434858300030000017701563431002517141_" gradientTransform="matrix(1 0 0 -1 0 514)" gradientUnits="userSpaceOnUse" x1="343.682" x2="437.189" xlink:href="#lg3" y1="171.095" y2="144.648"/><linearGradient id="SVGID_00000021102501527817121290000018103589376384781979_" gradientTransform="matrix(1 0 0 -1 0 514)" gradientUnits="userSpaceOnUse" x1="342.804" x2="342.804" xlink:href="#lg3" y1="155.854" y2="72.963"/><linearGradient id="SVGID_00000013872353574871440770000009909451985750436504_" gradientTransform="matrix(1 0 0 -1 0 514)" gradientUnits="userSpaceOnUse" x1="387.003" x2="426.61" y1="126.997" y2="87.39"><stop offset="0" stop-color="#fef0ae" stop-opacity="0"/><stop offset=".09792256" stop-color="#fef0ae" stop-opacity=".021"/><stop offset=".2219" stop-color="#fef0af" stop-opacity=".083"/><stop offset=".3599" stop-color="#fef0b2" stop-opacity=".185"/><stop offset=".5083" stop-color="#fef1b5" stop-opacity=".327"/><stop offset=".6648" stop-color="#fef2ba" stop-opacity=".509"/><stop offset=".8281" stop-color="#fef3bf" stop-opacity=".732"/><stop offset=".9942" stop-color="#fef4c5" stop-opacity=".991"/><stop offset="1" stop-color="#fff5c6"/></linearGradient><linearGradient id="SVGID_00000173140652899468256100000007148648541714247599_" gradientTransform="matrix(1 0 0 -1 0 514)" gradientUnits="userSpaceOnUse" x1="283.359" x2="305.911" xlink:href="#lg2" y1="305.454" y2="282.902"/><linearGradient id="SVGID_00000060746016333579667020000008364261497341119156_" gradientTransform="matrix(1 0 0 -1 0 514)" gradientUnits="userSpaceOnUse" x1="384.765" x2="407.32" xlink:href="#lg2" y1="54.42" y2="31.865"/><linearGradient id="SVGID_00000008141627446435258540000017553185893447208098_" gradientTransform="matrix(1 0 0 -1 0 514)" gradientUnits="userSpaceOnUse" x1="468.314" x2="468.314" xlink:href="#lg2" y1="237.153" y2="200.489"/><linearGradient id="SVGID_00000162316380924187801210000003149255110107138712_" gradientTransform="matrix(1 0 0 -1 0 514)" gradientUnits="userSpaceOnUse" x1="217.295" x2="217.295" xlink:href="#lg2" y1="135.712" y2="99.049"/><linearGradient id="SVGID_00000087379199254758982700000012521643900658982331_" gradientTransform="matrix(1 0 0 -1 0 514)" gradientUnits="userSpaceOnUse" x1="209.435" x2="232.025" xlink:href="#lg2" y1="232.84" y2="210.25"/><linearGradient id="SVGID_00000000195266127345329460000005358089372296313230_" gradientTransform="matrix(1 0 0 -1 0 514)" gradientUnits="userSpaceOnUse" x1="458.658" x2="481.252" xlink:href="#lg2" y1="127.067" y2="104.473"/><linearGradient id="SVGID_00000000921374469747154790000008386024705275631262_" gradientTransform="matrix(1 0 0 -1 0 514)" gradientUnits="userSpaceOnUse" x1="388.095" x2="407.682" xlink:href="#lg2" y1="303.401" y2="283.814"/><linearGradient id="SVGID_00000101095961696978659610000009392119430868455839_" gradientTransform="matrix(1 0 0 -1 0 514)" gradientUnits="userSpaceOnUse" x1="282.329" x2="301.916" xlink:href="#lg2" y1="54.177" y2="34.59"/><linearGradient id="SVGID_00000041986144317681183520000018273192474046965157_" gradientTransform="matrix(1 0 0 -1 0 514)" gradientUnits="userSpaceOnUse" x1="330.483" x2="362.27" xlink:href="#lg2" y1="328.382" y2="296.595"/><linearGradient id="SVGID_00000047763490387761795670000017783607747790492323_" gradientTransform="matrix(1 0 0 -1 0 514)" gradientUnits="userSpaceOnUse" x1="330.483" x2="362.27" xlink:href="#lg2" y1="38.653" y2="6.866"/><linearGradient id="SVGID_00000173870963705969633760000011436685021883353758_" gradientTransform="matrix(1 0 0 -1 0 514)" gradientUnits="userSpaceOnUse" x1="487.668" x2="487.668" xlink:href="#lg2" y1="184.823" y2="152.033"/><linearGradient id="SVGID_00000062881884936738427540000017605528339789718694_" gradientTransform="matrix(1 0 0 -1 0 514)" gradientUnits="userSpaceOnUse" x1="197.939" x2="197.939" xlink:href="#lg2" y1="184.823" y2="152.033"/><linearGradient id="SVGID_00000086668467067431346610000014588236871921641103_" gradientTransform="matrix(.707 -.707 -.707 -.707 3204.381 -2404.707)" gradientUnits="userSpaceOnUse" x1="-3978.547" x2="-3946.76" xlink:href="#lg2" y1="237.841" y2="206.054"/><linearGradient id="SVGID_00000107570894490647474840000008269401557241255588_" gradientTransform="matrix(.707 -.707 -.707 -.707 3204.381 -2404.707)" gradientUnits="userSpaceOnUse" x1="-3978.545" x2="-3946.758" xlink:href="#lg2" y1="-51.886" y2="-83.673"/><linearGradient id="SVGID_00000036933379808524114340000013395331995736186037_" gradientTransform="matrix(.707 .707 .707 -.707 -4329.676 311.998)" gradientUnits="userSpaceOnUse" x1="3313.404" x2="3345.191" xlink:href="#lg2" y1="3439.345" y2="3407.558"/><linearGradient id="SVGID_00000016070398975033051430000018084671597681072824_" gradientTransform="matrix(.707 .707 .707 -.707 -4329.676 311.998)" gradientUnits="userSpaceOnUse" x1="3313.404" x2="3345.191" xlink:href="#lg2" y1="3149.616" y2="3117.829"/><linearGradient id="SVGID_00000028317162485888050620000005351693050759580820_" gradientTransform="matrix(1 0 0 -1 0 514)" gradientUnits="userSpaceOnUse" x1="371.602" x2="329.031" xlink:href="#lg3" y1="177.94" y2="185.035"/><linearGradient id="lg4"><stop offset="0" stop-color="#3e5959"/><stop offset=".42" stop-color="#3f5152"/><stop offset="1" stop-color="#433f43"/></linearGradient><linearGradient id="SVGID_00000027566675417264251510000009230460503680150918_" gradientUnits="userSpaceOnUse" x1="334.82" x2="350.886" xlink:href="#lg4" y1="272.369" y2="272.369"/><linearGradient id="SVGID_00000051376773845558873840000006610736852169144496_" gradientTransform="matrix(-.707 .707 -.479 -.479 1733.167 1367.508)" gradientUnits="userSpaceOnUse" x1="250.577" x2="266.643" xlink:href="#lg4" y1="2458.457" y2="2458.457"/><linearGradient id="lg5"><stop offset="0" stop-color="#99e6fc"/><stop offset="1" stop-color="#2ed1e2"/></linearGradient><linearGradient id="SVGID_00000175282949586904062210000009813776424723740095_" gradientTransform="matrix(1 0 0 -1 0 514)" gradientUnits="userSpaceOnUse" x1="331.597" x2="355.306" xlink:href="#lg5" y1="182.403" y2="158.694"/><linearGradient id="lg6"><stop offset="0" stop-color="#017bae" stop-opacity="0"/><stop offset=".1152" stop-color="#017bae" stop-opacity=".038"/><stop offset=".2787" stop-color="#017bae" stop-opacity=".145"/><stop offset=".471" stop-color="#017bae" stop-opacity=".321"/><stop offset=".6854" stop-color="#017bae" stop-opacity=".565"/><stop offset=".9152" stop-color="#017bae" stop-opacity=".875"/><stop offset="1" stop-color="#017bae"/></linearGradient><linearGradient id="SVGID_00000150066869905793257550000003572410166187712936_" gradientTransform="matrix(1 0 0 -1 0 514)" gradientUnits="userSpaceOnUse" x1="343.054" x2="369.725" xlink:href="#lg6" y1="171.167" y2="163.624"/><linearGradient id="SVGID_00000060017768912142646880000003471739749571823517_" gradientTransform="matrix(1 0 0 -1 0 514)" gradientUnits="userSpaceOnUse" x1="342.804" x2="342.804" xlink:href="#lg6" y1="166.82" y2="143.177"/><linearGradient id="SVGID_00000144321334934429384230000005620799646971945657_" gradientTransform="matrix(1 0 0 -1 0 514)" gradientUnits="userSpaceOnUse" x1="354.591" x2="369.61" y1="159.41" y2="144.39"><stop offset="0" stop-color="#c8effe" stop-opacity="0"/><stop offset=".08969899" stop-color="#c8effe" stop-opacity=".026"/><stop offset=".2171" stop-color="#c8effe" stop-opacity=".1"/><stop offset=".367" stop-color="#c8effe" stop-opacity=".22"/><stop offset=".5341" stop-color="#c8effe" stop-opacity=".388"/><stop offset=".7155" stop-color="#c8effe" stop-opacity=".603"/><stop offset=".9059" stop-color="#c8effe" stop-opacity=".861"/><stop offset="1" stop-color="#c8effe"/></linearGradient><linearGradient id="SVGID_00000136411187978923160420000007892134668691138727_" gradientTransform="matrix(1 0 0 -1 0 514)" gradientUnits="userSpaceOnUse" x1="52.54" x2="31.574" xlink:href="#lg4" y1="457.254" y2="478.22"/><linearGradient id="SVGID_00000123441704541420039940000016737758455767334540_" gradientTransform="matrix(1 0 0 -1 0 514)" gradientUnits="userSpaceOnUse" x1="42.194" x2="55.105" xlink:href="#lg5" y1="486.321" y2="486.321"/><linearGradient id="SVGID_00000003081962682910108140000000680868310160952210_" gradientTransform="matrix(1 0 0 -1 0 514)" gradientUnits="userSpaceOnUse" x1="118.69" x2="97.724" xlink:href="#lg4" y1="457.254" y2="478.22"/><linearGradient id="SVGID_00000159440806496389331680000007412957500015788699_" gradientTransform="matrix(1 0 0 -1 0 514)" gradientUnits="userSpaceOnUse" x1="108.344" x2="121.255" xlink:href="#lg5" y1="486.321" y2="486.321"/><linearGradient id="SVGID_00000088091250510441294920000009863139862063137968_" gradientTransform="matrix(1 0 0 -1 0 514)" gradientUnits="userSpaceOnUse" x1="184.841" x2="163.875" xlink:href="#lg4" y1="457.254" y2="478.22"/><linearGradient id="SVGID_00000030468576531469418840000003700916796854995889_" gradientTransform="matrix(1 0 0 -1 0 514)" gradientUnits="userSpaceOnUse" x1="174.494" x2="187.405" xlink:href="#lg5" y1="486.321" y2="486.321"/><linearGradient id="SVGID_00000159451217936000023820000007489906465746980778_" gradientTransform="matrix(1 0 0 -1 0 514)" gradientUnits="userSpaceOnUse" x1="250.991" x2="230.025" xlink:href="#lg4" y1="457.254" y2="478.22"/><linearGradient id="SVGID_00000147207953711564344720000016249630059043455878_" gradientTransform="matrix(1 0 0 -1 0 514)" gradientUnits="userSpaceOnUse" x1="240.645" x2="253.555" xlink:href="#lg5" y1="486.321" y2="486.321"/><linearGradient id="SVGID_00000181062194016999511180000011981934943519637650_" gradientTransform="matrix(1 0 0 -1 0 514)" gradientUnits="userSpaceOnUse" x1="317.141" x2="296.175" xlink:href="#lg4" y1="457.254" y2="478.22"/><linearGradient id="SVGID_00000119100209033581694050000010641486622280390588_" gradientTransform="matrix(1 0 0 -1 0 514)" gradientUnits="userSpaceOnUse" x1="306.795" x2="319.706" xlink:href="#lg5" y1="486.321" y2="486.321"/><linearGradient id="SVGID_00000048475544238126048150000001546523425079816070_" gradientTransform="matrix(1 0 0 -1 0 514)" gradientUnits="userSpaceOnUse" x1="383.292" x2="362.325" xlink:href="#lg4" y1="457.254" y2="478.22"/><linearGradient id="SVGID_00000057847039210095372900000017808944741924025498_" gradientTransform="matrix(1 0 0 -1 0 514)" gradientUnits="userSpaceOnUse" x1="372.945" x2="385.856" xlink:href="#lg5" y1="486.321" y2="486.321"/><linearGradient id="SVGID_00000176008243995978132210000016674905482473022893_" gradientTransform="matrix(1 0 0 -1 0 514)" gradientUnits="userSpaceOnUse" x1="449.442" x2="428.476" xlink:href="#lg4" y1="457.254" y2="478.22"/><linearGradient id="SVGID_00000160150013744468596450000000150625616406778555_" gradientTransform="matrix(1 0 0 -1 0 514)" gradientUnits="userSpaceOnUse" x1="439.096" x2="452.006" xlink:href="#lg5" y1="486.321" y2="486.321"/><g><g><path d="m16.4 18.3h453.4c9.1 0 16.4 7.4 16.4 16.4v347.7c0 9.1-7.4 16.4-16.4 16.4h-453.4c-9.1 0-16.4-7.4-16.4-16.4v-347.7c0-9 7.4-16.4 16.4-16.4z" fill="url(#SVGID_1_)"/><g><g><path d="m29.9 140.7h62.4c1.6 0 2.9 1.3 2.9 2.9v27.1c0 1.6-1.3 2.9-2.9 2.9h-62.4c-1.6 0-2.9-1.3-2.9-2.9v-27.1c0-1.7 1.3-2.9 2.9-2.9z" fill="url(#SVGID_00000103226743015888612450000008011111160264962432_)"/><path d="m120.9 140.7h62.4c1.6 0 2.9 1.3 2.9 2.9v27.1c0 1.6-1.3 2.9-2.9 2.9h-62.4c-1.6 0-2.9-1.3-2.9-2.9v-27.1c.1-1.7 1.3-2.9 2.9-2.9z" fill="url(#SVGID_00000023991749190006769960000002195801325006699412_)"/><path d="m211.9 140.7h62.4c1.6 0 2.9 1.3 2.9 2.9v27.1c0 1.6-1.3 2.9-2.9 2.9h-62.4c-1.6 0-2.9-1.3-2.9-2.9v-27.1c.1-1.7 1.3-2.9 2.9-2.9z" fill="url(#SVGID_00000168118013175053012320000008235481599656917889_)"/><path d="m302.9 140.7h62.4c1.6 0 2.9 1.3 2.9 2.9v27.1c0 1.6-1.3 2.9-2.9 2.9h-62.4c-1.6 0-2.9-1.3-2.9-2.9v-27.1c.1-1.7 1.4-2.9 2.9-2.9z" fill="url(#SVGID_00000171701973541530458940000012290811064859013797_)"/><path d="m394 140.7h62.4c1.6 0 2.9 1.3 2.9 2.9v27.1c0 1.6-1.3 2.9-2.9 2.9h-62.4c-1.6 0-2.9-1.3-2.9-2.9v-27.1c0-1.7 1.3-2.9 2.9-2.9z" fill="url(#SVGID_00000004539404311611944510000011443700376586909825_)"/></g><g><path d="m29.9 196.3h62.4c1.6 0 2.9 1.3 2.9 2.9v27.1c0 1.6-1.3 2.9-2.9 2.9h-62.4c-1.6 0-2.9-1.3-2.9-2.9v-27.1c0-1.6 1.3-2.9 2.9-2.9z" fill="url(#SVGID_00000011017191137885060080000011403928921164957577_)"/><path d="m120.9 196.3h62.4c1.6 0 2.9 1.3 2.9 2.9v27.1c0 1.6-1.3 2.9-2.9 2.9h-62.4c-1.6 0-2.9-1.3-2.9-2.9v-27.1c.1-1.6 1.3-2.9 2.9-2.9z" fill="url(#SVGID_00000161607542261464802910000017172379148864458164_)"/><path d="m211.9 196.3h62.4c1.6 0 2.9 1.3 2.9 2.9v27.1c0 1.6-1.3 2.9-2.9 2.9h-62.4c-1.6 0-2.9-1.3-2.9-2.9v-27.1c.1-1.6 1.3-2.9 2.9-2.9z" fill="url(#SVGID_00000030469340175229460570000002564364605176325814_)"/><path d="m302.9 196.3h62.4c1.6 0 2.9 1.3 2.9 2.9v27.1c0 1.6-1.3 2.9-2.9 2.9h-62.4c-1.6 0-2.9-1.3-2.9-2.9v-27.1c.1-1.6 1.4-2.9 2.9-2.9z" fill="url(#SVGID_00000136372764588506739310000000021545113724495528_)"/><path d="m394 196.3h62.4c1.6 0 2.9 1.3 2.9 2.9v27.1c0 1.6-1.3 2.9-2.9 2.9h-62.4c-1.6 0-2.9-1.3-2.9-2.9v-27.1c0-1.6 1.3-2.9 2.9-2.9z" fill="url(#SVGID_00000022532311835134122620000005052247807033864878_)"/></g><g><path d="m29.9 252h62.4c1.6 0 2.9 1.3 2.9 2.9v27.1c0 1.6-1.3 2.9-2.9 2.9h-62.4c-1.6 0-2.9-1.3-2.9-2.9v-27.1c0-1.6 1.3-2.9 2.9-2.9z" fill="url(#SVGID_00000154413940220447191250000013522031089089594299_)"/><path d="m120.9 252h62.4c1.6 0 2.9 1.3 2.9 2.9v27.1c0 1.6-1.3 2.9-2.9 2.9h-62.4c-1.6 0-2.9-1.3-2.9-2.9v-27.1c.1-1.6 1.3-2.9 2.9-2.9z" fill="url(#SVGID_00000155136599232450502480000008365477722265122176_)"/><path d="m211.9 252h62.4c1.6 0 2.9 1.3 2.9 2.9v27.1c0 1.6-1.3 2.9-2.9 2.9h-62.4c-1.6 0-2.9-1.3-2.9-2.9v-27.1c.1-1.6 1.3-2.9 2.9-2.9z" fill="url(#SVGID_00000147929671865138176830000016748912644709083010_)"/><path d="m302.9 252h62.4c1.6 0 2.9 1.3 2.9 2.9v27.1c0 1.6-1.3 2.9-2.9 2.9h-62.4c-1.6 0-2.9-1.3-2.9-2.9v-27.1c.1-1.6 1.4-2.9 2.9-2.9z" fill="url(#SVGID_00000060718538693458461110000010981953926667762100_)"/><path d="m394 252h62.4c1.6 0 2.9 1.3 2.9 2.9v27.1c0 1.6-1.3 2.9-2.9 2.9h-62.4c-1.6 0-2.9-1.3-2.9-2.9v-27.1c0-1.6 1.3-2.9 2.9-2.9z" fill="url(#SVGID_00000173855017729759135200000017780301863987163029_)"/></g><g><path d="m29.9 307.7h62.4c1.6 0 2.9 1.3 2.9 2.9v27.1c0 1.6-1.3 2.9-2.9 2.9h-62.4c-1.6 0-2.9-1.3-2.9-2.9v-27.1c0-1.6 1.3-2.9 2.9-2.9z" fill="url(#SVGID_00000026127330096503266170000014185321501854430364_)"/><path d="m120.9 307.7h62.4c1.6 0 2.9 1.3 2.9 2.9v27.1c0 1.6-1.3 2.9-2.9 2.9h-62.4c-1.6 0-2.9-1.3-2.9-2.9v-27.1c.1-1.6 1.3-2.9 2.9-2.9z" fill="url(#SVGID_00000129188204826701746560000007432656504689791132_)"/></g></g><path d="m469.8 18.3h-453.4c-9 0-16.4 7.4-16.4 16.4v75.1h486.3v-75.1c0-9-7.4-16.4-16.5-16.4z" fill="url(#SVGID_00000054963564417109322620000016873452425776285855_)"/><path d="m0 204.2v178.2c0 9.1 7.4 16.4 16.4 16.4h453.4c9.1 0 16.4-7.4 16.4-16.4v-178.2z" fill="url(#SVGID_00000044896225586231420950000013754330797541162650_)"/><path d="m469.8 18.3h-230.4v380.6h230.5c9.1 0 16.4-7.4 16.4-16.4v-347.8c0-9-7.4-16.4-16.5-16.4z" fill="url(#SVGID_00000181072068283490181140000007462433464235472776_)"/></g><g><g><g><circle cx="342.8" cy="342.8" fill="url(#SVGID_00000001637454735792253460000003743907790263866250_)" r="108.1"/><path d="m342.8 234.8c-7.5 0-14.9.8-22 2.2v211.6c7.1 1.5 14.4 2.2 22 2.2 59.7 0 108.1-48.4 108.1-108.1s-48.4-107.9-108.1-107.9z" fill="url(#SVGID_00000155142831434858300030000017701563431002517141_)"/><path d="m234.7 342.8c0 59.7 48.4 108.1 108.1 108.1s108.1-48.4 108.1-108.1c0-7.9-.9-15.7-2.5-23.1h-211.1c-1.7 7.4-2.6 15.2-2.6 23.1z" fill="url(#SVGID_00000021102501527817121290000018103589376384781979_)"/><path d="m397.5 249.6-147.9 147.9c18.8 31.9 53.5 53.4 93.2 53.4 59.7 0 108.1-48.4 108.1-108.1 0-39.7-21.5-74.4-53.4-93.2z" fill="url(#SVGID_00000013872353574871440770000009909451985750436504_)"/></g><g><g><g><path d="m297.6 231c-5.8 2.3-12.4-.5-14.7-6.3l-2.7-6.6c-2.3-5.7.4-12.3 6.2-14.6.1 0 .1-.1.2-.1 5.7-2.3 12.3.5 14.6 6.2l2.7 6.6c2.3 5.9-.5 12.5-6.3 14.8z" fill="url(#SVGID_00000173140652899468256100000007148648541714247599_)"/><path d="m399.2 482c-.1 0-.1.1-.2.1-5.7 2.3-12.3-.5-14.6-6.2l-2.7-6.6c-2.3-5.8.5-12.4 6.3-14.7s12.4.5 14.7 6.3l2.7 6.6c2.3 5.6-.5 12.2-6.2 14.5z" fill="url(#SVGID_00000060746016333579667020000008364261497341119156_)"/></g><g><path d="m482.1 286.6c2.3 5.7-.5 12.3-6.2 14.6l-6.6 2.7c-5.8 2.3-12.4-.5-14.7-6.3s.5-12.4 6.3-14.7l6.6-2.7c5.7-2.3 12.3.4 14.6 6.2-.1.1 0 .2 0 .2z" fill="url(#SVGID_00000008141627446435258540000017553185893447208098_)"/><path d="m224.8 402.7-6.6 2.7c-5.7 2.3-12.3-.4-14.6-6.2 0-.1-.1-.1-.1-.2-2.3-5.7.5-12.3 6.2-14.6l6.6-2.7c5.8-2.3 12.4.5 14.7 6.3 2.4 5.7-.4 12.3-6.2 14.7z" fill="url(#SVGID_00000162316380924187801210000003149255110107138712_)"/></g></g><g><g><path d="m231.9 295.7c-2.4 5.8-9.1 8.4-14.8 6l-6.6-2.8c-5.7-2.4-8.4-9-5.9-14.7 0-.1.1-.1.1-.2 2.4-5.7 9-8.3 14.7-5.9l6.6 2.8c5.6 2.4 8.3 9.1 5.9 14.8z" fill="url(#SVGID_00000087379199254758982700000012521643900658982331_)"/><path d="m481.1 401.4c0 .1-.1.1-.1.2-2.4 5.7-9 8.3-14.7 5.9l-6.6-2.8c-5.7-2.4-8.4-9.1-6-14.8s9.1-8.4 14.8-6l6.6 2.8c5.7 2.4 8.4 9 6 14.7z" fill="url(#SVGID_00000000195266127345329460000005358089372296313230_)"/></g><g><path d="m401.6 204.6c5.7 2.4 8.3 9 5.9 14.7l-2.8 6.6c-2.4 5.7-9.1 8.4-14.8 6s-8.4-9.1-6-14.8l2.8-6.6c2.4-5.7 9-8.4 14.7-5.9z" fill="url(#SVGID_00000000921374469747154790000008386024705275631262_)"/><path d="m301.7 468.6-2.8 6.6c-2.4 5.7-9 8.4-14.7 5.9-.1 0-.1-.1-.2-.1-5.7-2.4-8.3-9-5.9-14.7l2.8-6.6c2.4-5.7 9.1-8.4 14.8-6 5.8 2.5 8.4 9.1 6 14.9z" fill="url(#SVGID_00000101095961696978659610000009392119430868455839_)"/></g></g></g><g><g><g><path d="m342.8 173.6c-6.2 0-11.3 5.1-11.3 11.3v26c0 6.2 5.1 11.3 11.3 11.3s11.3-5.1 11.3-11.3v-26c0-6.2-5-11.3-11.3-11.3z" fill="url(#SVGID_00000041986144317681183520000018273192474046965157_)"/><path d="m342.8 463.3c-6.2 0-11.3 5.1-11.3 11.3v26c0 6.2 5.1 11.3 11.3 11.3s11.3-5.1 11.3-11.3v-26c0-6.2-5-11.3-11.3-11.3z" fill="url(#SVGID_00000047763490387761795670000017783607747790492323_)"/></g><g><path d="m512 342.8c0-6.2-5.1-11.3-11.3-11.3h-26c-6.2 0-11.3 5.1-11.3 11.3s5.1 11.3 11.3 11.3h26c6.2 0 11.3-5 11.3-11.3z" fill="url(#SVGID_00000173870963705969633760000011436685021883353758_)"/><path d="m222.3 342.8c0-6.2-5.1-11.3-11.3-11.3h-26c-6.2 0-11.3 5.1-11.3 11.3s5.1 11.3 11.3 11.3h26c6.2 0 11.3-5 11.3-11.3z" fill="url(#SVGID_00000062881884936738427540000017605528339789718694_)"/></g></g><g><g><path d="m223.2 223.2c-4.4 4.4-4.4 11.6 0 16l18.4 18.4c4.4 4.4 11.6 4.4 16 0s4.4-11.6 0-16l-18.4-18.4c-4.5-4.5-11.6-4.5-16 0z" fill="url(#SVGID_00000086668467067431346610000014588236871921641103_)"/><path d="m428 428c-4.4 4.4-4.4 11.6 0 16l18.4 18.4c4.4 4.4 11.6 4.4 16 0s4.4-11.6 0-16l-18.4-18.4c-4.4-4.4-11.6-4.4-16 0z" fill="url(#SVGID_00000107570894490647474840000008269401557241255588_)"/></g><g><path d="m462.4 223.2c-4.4-4.4-11.6-4.4-16 0l-18.4 18.4c-4.4 4.4-4.4 11.6 0 16s11.6 4.4 16 0l18.4-18.4c4.5-4.5 4.5-11.6 0-16z" fill="url(#SVGID_00000036933379808524114340000013395331995736186037_)"/><path d="m257.6 428c-4.4-4.4-11.6-4.4-16 0l-18.4 18.4c-4.4 4.4-4.4 11.6 0 16s11.6 4.4 16 0l18.4-18.4c4.4-4.4 4.4-11.6 0-16z" fill="url(#SVGID_00000016070398975033051430000018084671597681072824_)"/></g></g></g></g><g><path d="m342.8 234.7c-.6 0-1.2 0-1.8 0v111.6l-18.7 19.7 71.9 71.9c33.7-18.3 56.6-54 56.6-95 .1-59.8-48.3-108.2-108-108.2z" fill="url(#SVGID_00000028317162485888050620000005351693050759580820_)"/><g><path d="m350 347.9c-.3 3.8-3.4 6.7-7.2 6.7-3.8 0-6.9-2.9-7.2-6.7l-8.9-127.8c-.1-1.1.1-2.2.5-3.2l8.9-22.2c2.4-6.1 11-6.1 13.4 0l8.9 22.2c.4 1 .6 2.1.5 3.2z" fill="url(#SVGID_00000027566675417264251510000009230460503680150918_)"/><path d="m332.6 342.8c-1.6-2-.8-5.6 1.9-8.3 2.7-2.7 6.3-3.5 8.3-1.9l67.5 54.9c.6.5 1 1.1 1.2 1.9l4.4 16.9c1.2 4.6-4.9 10.7-9.5 9.5l-16.9-4.4c-.8-.2-1.4-.6-1.9-1.2z" fill="url(#SVGID_00000051376773845558873840000006610736852169144496_)"/><g><circle cx="342.8" cy="342.8" fill="url(#SVGID_00000175282949586904062210000009813776424723740095_)" r="30.8"/><path d="m342.8 312c-2.1 0-4.2.2-6.3.6v60.4c2 .4 4.1.6 6.3.6 17 0 30.8-13.8 30.8-30.8s-13.8-30.8-30.8-30.8z" fill="url(#SVGID_00000150066869905793257550000003572410166187712936_)"/><path d="m312 342.8c0 17 13.8 30.8 30.8 30.8s30.8-13.8 30.8-30.8c0-2.3-.3-4.5-.7-6.6h-60.2c-.5 2.1-.7 4.3-.7 6.6z" fill="url(#SVGID_00000060017768912142646880000003471739749571823517_)"/><path d="m358.4 316.2-42.2 42.2c5.4 9.1 15.3 15.2 26.6 15.2 17 0 30.8-13.8 30.8-30.8 0-11.3-6.1-21.2-15.2-26.6z" fill="url(#SVGID_00000144321334934429384230000005620799646971945657_)"/></g></g></g></g><g><g><circle cx="44.7" cy="48.9" fill="url(#SVGID_00000136411187978923160420000007892134668691138727_)" r="16.7"/><path d="m44.7 0c5.7 0 10.3 4.6 10.3 10.3v34.7c0 5.7-4.6 10.3-10.3 10.3-5.7 0-10.3-4.6-10.3-10.3v-34.7c0-5.7 4.6-10.3 10.3-10.3z" fill="url(#SVGID_00000123441704541420039940000016737758455767334540_)"/></g><g><circle cx="110.8" cy="48.9" fill="url(#SVGID_00000003081962682910108140000000680868310160952210_)" r="16.7"/><path d="m110.8 0c5.7 0 10.3 4.6 10.3 10.3v34.7c0 5.7-4.6 10.3-10.3 10.3-5.7 0-10.3-4.6-10.3-10.3v-34.7c0-5.7 4.6-10.3 10.3-10.3z" fill="url(#SVGID_00000159440806496389331680000007412957500015788699_)"/></g><g><circle cx="177" cy="48.9" fill="url(#SVGID_00000088091250510441294920000009863139862063137968_)" r="16.7"/><path d="m177 0c5.7 0 10.3 4.6 10.3 10.3v34.7c0 5.7-4.6 10.3-10.3 10.3-5.7 0-10.3-4.6-10.3-10.3v-34.7c0-5.7 4.6-10.3 10.3-10.3z" fill="url(#SVGID_00000030468576531469418840000003700916796854995889_)"/></g><g><circle cx="243.1" cy="48.9" fill="url(#SVGID_00000159451217936000023820000007489906465746980778_)" r="16.7"/><path d="m243.1 0c5.7 0 10.3 4.6 10.3 10.3v34.7c0 5.7-4.6 10.3-10.3 10.3-5.7 0-10.3-4.6-10.3-10.3v-34.7c0-5.7 4.6-10.3 10.3-10.3z" fill="url(#SVGID_00000147207953711564344720000016249630059043455878_)"/></g><g><circle cx="309.3" cy="48.9" fill="url(#SVGID_00000181062194016999511180000011981934943519637650_)" r="16.7"/><path d="m309.3 0c5.7 0 10.3 4.6 10.3 10.3v34.7c0 5.7-4.6 10.3-10.3 10.3-5.7 0-10.3-4.6-10.3-10.3v-34.7c0-5.7 4.6-10.3 10.3-10.3z" fill="url(#SVGID_00000119100209033581694050000010641486622280390588_)"/></g><g><circle cx="375.4" cy="48.9" fill="url(#SVGID_00000048475544238126048150000001546523425079816070_)" r="16.7"/><path d="m375.4 0c5.7 0 10.3 4.6 10.3 10.3v34.7c0 5.7-4.6 10.3-10.3 10.3-5.7 0-10.3-4.6-10.3-10.3v-34.7c0-5.7 4.6-10.3 10.3-10.3z" fill="url(#SVGID_00000057847039210095372900000017808944741924025498_)"/></g><g><circle cx="441.6" cy="48.9" fill="url(#SVGID_00000176008243995978132210000016674905482473022893_)" r="16.7"/><path d="m441.6 0c5.7 0 10.3 4.6 10.3 10.3v34.7c0 5.7-4.6 10.3-10.3 10.3-5.7 0-10.3-4.6-10.3-10.3v-34.7c0-5.7 4.6-10.3 10.3-10.3z" fill="url(#SVGID_00000160150013744468596450000000150625616406778555_)"/></g></g></g></svg>