<svg id="_17_Stress_Management" enable-background="new 0 0 512 512" viewBox="0 0 512 512" xmlns="http://www.w3.org/2000/svg" xmlns:xlink="http://www.w3.org/1999/xlink"><linearGradient id="lg1"><stop offset="0" stop-color="#fe99a0"/><stop offset=".2132" stop-color="#fe949d"/><stop offset=".4342" stop-color="#fe8894"/><stop offset=".6587" stop-color="#fe7385"/><stop offset=".8843" stop-color="#fe5671"/><stop offset="1" stop-color="#ff4565"/></linearGradient><linearGradient id="SVGID_1_" gradientTransform="matrix(1 0 0 -1 0 514)" gradientUnits="userSpaceOnUse" x1="131.56" x2="190.805" xlink:href="#lg1" y1="513.479" y2="370.684"/><linearGradient id="lg2"><stop offset="0" stop-color="#ff4565" stop-opacity="0"/><stop offset=".1276" stop-color="#fe4463" stop-opacity=".018"/><stop offset=".2599" stop-color="#fd4260" stop-opacity=".073"/><stop offset=".3944" stop-color="#fa3e5b" stop-opacity=".164"/><stop offset=".5304" stop-color="#f73954" stop-opacity=".292"/><stop offset=".6676" stop-color="#f2334b" stop-opacity=".456"/><stop offset=".8059" stop-color="#ed2c40" stop-opacity=".657"/><stop offset=".9424" stop-color="#e62333" stop-opacity=".891"/><stop offset="1" stop-color="#e41f2d"/></linearGradient><linearGradient id="SVGID_00000036954938577081578120000015242588247725664670_" gradientTransform="matrix(1 0 0 -1 0 514)" gradientUnits="userSpaceOnUse" x1="160.851" x2="202.217" xlink:href="#lg2" y1="447.739" y2="400.291"/><linearGradient id="SVGID_00000034788303003909609220000012128072634859076769_" gradientTransform="matrix(1 0 0 -1 0 514)" gradientUnits="userSpaceOnUse" x1="427.602" x2="391.903" xlink:href="#lg1" y1="191.83" y2="144.738"/><linearGradient id="SVGID_00000150805783738256563970000010259398990424019329_" gradientTransform="matrix(1 0 0 -1 0 514)" gradientUnits="userSpaceOnUse" x1="448.82" x2="398.562" xlink:href="#lg2" y1="160.929" y2="186.236"/><linearGradient id="SVGID_00000044143056833578042440000001276596392845326488_" gradientTransform="matrix(1 0 0 -1 0 514)" gradientUnits="userSpaceOnUse" x1="207.184" x2="296.051" xlink:href="#lg1" y1="438.806" y2="168.787"/><linearGradient id="SVGID_00000100365256004362929470000005758643716379331203_" gradientTransform="matrix(1 0 0 -1 0 514)" gradientUnits="userSpaceOnUse" x1="261.536" x2="261.536" xlink:href="#lg2" y1="252.891" y2="179.975"/><linearGradient id="SVGID_00000104675985257541907370000010910679899203323779_" gradientTransform="matrix(1 0 0 -1 0 514)" gradientUnits="userSpaceOnUse" x1="499.513" x2="462.8" xlink:href="#lg2" y1="217.052" y2="242.359"/><linearGradient id="SVGID_00000155109970065993322220000006793638643818664576_" gradientTransform="matrix(1 0 0 -1 0 514)" gradientUnits="userSpaceOnUse" x1="74.527" x2="36.744" xlink:href="#lg2" y1="231.685" y2="247.012"/><linearGradient id="SVGID_00000023265563679647484370000009790588628086834078_" gradientTransform="matrix(1 0 0 -1 0 514)" gradientUnits="userSpaceOnUse" x1="186.01" x2="128.285" xlink:href="#lg2" y1="429.451" y2="459.073"/><linearGradient id="SVGID_00000023275818064119085160000004142606753090030755_" gradientTransform="matrix(1 0 0 -1 0 514)" gradientUnits="userSpaceOnUse" x1="97.443" x2="22.417" xlink:href="#lg2" y1="362.233" y2="362.233"/><linearGradient id="SVGID_00000003097787147911936120000011157591607551359371_" gradientTransform="matrix(1 0 0 -1 0 514)" gradientUnits="userSpaceOnUse" x1="323.231" x2="405.262" xlink:href="#lg2" y1="420.091" y2="461.107"/><linearGradient id="SVGID_00000078030265824458374840000007517360578193909124_" gradientTransform="matrix(1 0 0 -1 0 514)" gradientUnits="userSpaceOnUse" x1="424.3" x2="480.167" xlink:href="#lg2" y1="362.233" y2="362.233"/><linearGradient id="SVGID_00000182509436014257651400000005268047135192063384_" gradientTransform="matrix(1 0 0 -1 0 514)" gradientUnits="userSpaceOnUse" x1="399.291" x2="399.291" xlink:href="#lg2" y1="394.926" y2="444.39"/><linearGradient id="SVGID_00000098906561814237171080000001530810013824746128_" gradientTransform="matrix(1 0 0 -1 0 514)" gradientUnits="userSpaceOnUse" x1="236.325" x2="276.581" xlink:href="#lg2" y1="442.566" y2="484.341"/><linearGradient id="SVGID_00000053516503577105477170000002980102773933146281_" gradientTransform="matrix(1 0 0 -1 0 514)" gradientUnits="userSpaceOnUse" x1="303.391" x2="385.422" xlink:href="#lg2" y1="270.473" y2="311.489"/><linearGradient id="SVGID_00000111902115803093316650000002952367439391017909_" gradientTransform="matrix(1 0 0 -1 0 514)" gradientUnits="userSpaceOnUse" x1="216.486" x2="256.741" xlink:href="#lg2" y1="292.947" y2="334.722"/><linearGradient id="SVGID_00000139287876228311814900000016782360867496391604_" gradientTransform="matrix(1 0 0 -1 0 514)" gradientUnits="userSpaceOnUse" x1="275.099" x2="206.108" xlink:href="#lg2" y1="234.155" y2="234.155"/><linearGradient id="SVGID_00000015356653873366555530000013216348417684854707_" gradientTransform="matrix(1 0 0 -1 0 514)" gradientUnits="userSpaceOnUse" x1="277.84" x2="219.621" xlink:href="#lg2" y1="212.315" y2="270.533"/><linearGradient id="SVGID_00000176024845889046792350000006232707725980416173_" gradientTransform="matrix(1 0 0 -1 0 514)" gradientUnits="userSpaceOnUse" x1="316.033" x2="239.756" xlink:href="#lg2" y1="337.622" y2="346.177"/><linearGradient id="SVGID_00000062904706211217986160000014895251759946531748_" gradientTransform="matrix(1 0 0 -1 0 514)" gradientUnits="userSpaceOnUse" x1="435.172" x2="342.024" xlink:href="#lg2" y1="235.613" y2="249.395"/><linearGradient id="lg3"><stop offset="0" stop-color="#eaf6ff"/><stop offset=".2651" stop-color="#e5f3fe"/><stop offset=".5398" stop-color="#d9edfe"/><stop offset=".8179" stop-color="#c4e3fe"/><stop offset="1" stop-color="#b3dafe"/></linearGradient><linearGradient id="SVGID_00000170987883467043865220000003627452256193384869_" gradientTransform="matrix(.906 .423 .423 -.906 -255.492 -377.533)" gradientUnits="userSpaceOnUse" x1="674.261" x2="816.351" xlink:href="#lg3" y1="-312.494" y2="-454.583"/><linearGradient id="SVGID_00000038399267006001856500000016110402443963625138_" gradientTransform="matrix(.906 .423 .423 -.906 -255.492 -377.533)" gradientUnits="userSpaceOnUse" x1="791.001" x2="689.291" xlink:href="#lg3" y1="-429.234" y2="-327.524"/><linearGradient id="lg4"><stop offset="0" stop-color="#8ac9fe" stop-opacity="0"/><stop offset=".1291" stop-color="#89c8fd" stop-opacity=".019"/><stop offset=".2629" stop-color="#88c6fb" stop-opacity=".075"/><stop offset=".3989" stop-color="#87c4f8" stop-opacity=".168"/><stop offset=".5365" stop-color="#85c0f4" stop-opacity=".298"/><stop offset=".6753" stop-color="#83bbef" stop-opacity=".466"/><stop offset=".8151" stop-color="#7fb5e9" stop-opacity=".672"/><stop offset=".9532" stop-color="#7caee1" stop-opacity=".911"/><stop offset="1" stop-color="#7bacdf"/></linearGradient><linearGradient id="SVGID_00000084489447163564892710000010383081181867653764_" gradientTransform="matrix(1 0 0 -1 0 514)" gradientUnits="userSpaceOnUse" x1="271.85" x2="247.969" xlink:href="#lg4" y1="301.44" y2="315.341"/><linearGradient id="SVGID_00000101811257690400784690000000095971005851105956_" gradientTransform="matrix(1 0 0 -1 -685.105 -113.847)" gradientUnits="userSpaceOnUse" x1="853.218" x2="833.037" xlink:href="#lg4" y1="-444.797" y2="-464.074"/><linearGradient id="SVGID_00000134957796280551319450000008749395491056798876_" gradientTransform="matrix(1 0 0 -1 0 514)" gradientUnits="userSpaceOnUse" x1="174.682" x2="178.33" xlink:href="#lg4" y1="159.884" y2="151.832"/><linearGradient id="SVGID_00000075879818246611543660000007032056424094767510_" gradientTransform="matrix(1 0 0 -1 0 514)" gradientUnits="userSpaceOnUse" x1="357.934" x2="366.615" xlink:href="#lg4" y1="271.092" y2="258.259"/><linearGradient id="SVGID_00000033350086482680188200000003858156462951857551_" gradientTransform="matrix(1 0 0 -1 -685.105 -113.847)" gradientUnits="userSpaceOnUse" x1="945.604" x2="975.146" xlink:href="#lg4" y1="-287.871" y2="-287.871"/><linearGradient id="SVGID_00000065053442331715135190000006053023527694416010_" gradientTransform="matrix(1 0 0 -1 -685.105 -113.847)" gradientUnits="userSpaceOnUse" x1="945.604" x2="975.146" xlink:href="#lg4" y1="-499.514" y2="-499.514"/><linearGradient id="SVGID_00000158006545509713232870000001239950607368911516_" gradientTransform="matrix(1 0 0 -1 -685.105 -113.847)" gradientUnits="userSpaceOnUse" x1="941.105" x2="941.105" xlink:href="#lg4" y1="-491.477" y2="-518.092"/><linearGradient id="SVGID_00000048464559757786334910000007950095860380806549_" gradientTransform="matrix(1 0 0 -1 -685.105 -113.847)" gradientUnits="userSpaceOnUse" x1="847.603" x2="832.016" xlink:href="#lg4" y1="-344.134" y2="-371.468"/><linearGradient id="SVGID_00000182499752684864402910000001286601499435192745_" gradientTransform="matrix(1 0 0 -1 -685.105 -113.847)" gradientUnits="userSpaceOnUse" x1="1026.676" x2="1049.492" xlink:href="#lg4" y1="-443.069" y2="-457.075"/><linearGradient id="SVGID_00000080196819051062917840000013430314938606532030_" gradientTransform="matrix(1 0 0 -1 -685.105 -113.847)" gradientUnits="userSpaceOnUse" x1="1028.185" x2="1017.116" xlink:href="#lg4" y1="-454.606" y2="-474.712"/><linearGradient id="SVGID_00000031901950696830175230000017233587926004718509_" gradientTransform="matrix(1 0 0 -1 0 514)" gradientUnits="userSpaceOnUse" x1="225.482" x2="296.291" y1="419.936" y2="376.998"><stop offset="0" stop-color="#ffed86"/><stop offset=".1839" stop-color="#feea81"/><stop offset=".3745" stop-color="#fde175"/><stop offset=".5682" stop-color="#fad260"/><stop offset=".764" stop-color="#f7be43"/><stop offset=".9596" stop-color="#f3a41e"/><stop offset="1" stop-color="#f29e16"/></linearGradient><linearGradient id="lg5"><stop offset="0" stop-color="#f29e16" stop-opacity="0"/><stop offset=".1207" stop-color="#f29d16" stop-opacity=".016"/><stop offset=".2459" stop-color="#f29b18" stop-opacity=".065"/><stop offset=".3731" stop-color="#f3971b" stop-opacity=".147"/><stop offset=".5018" stop-color="#f5921e" stop-opacity=".262"/><stop offset=".6317" stop-color="#f68b23" stop-opacity=".41"/><stop offset=".7625" stop-color="#f9842a" stop-opacity=".59"/><stop offset=".8916" stop-color="#fb7a31" stop-opacity=".8"/><stop offset="1" stop-color="#fe7238"/></linearGradient><linearGradient id="SVGID_00000034070891299659993610000010879383219852987523_" gradientTransform="matrix(1 0 0 -1 0 514)" gradientUnits="userSpaceOnUse" x1="270.842" x2="243.676" xlink:href="#lg5" y1="401.416" y2="401.416"/><linearGradient id="SVGID_00000083070190500506987480000005467178787193807544_" gradientTransform="matrix(1 0 0 -1 0 514)" gradientUnits="userSpaceOnUse" x1="275.684" x2="285.226" xlink:href="#lg5" y1="391.682" y2="386.911"/><linearGradient id="SVGID_00000067203319432654305820000004428676315402223001_" gradientTransform="matrix(1 0 0 -1 0 514)" gradientUnits="userSpaceOnUse" x1="214.062" x2="299.81" y1="126.175" y2="40.427"><stop offset="0" stop-color="#8ac9fe"/><stop offset=".1658" stop-color="#85c6fd"/><stop offset=".3377" stop-color="#79c0fd"/><stop offset=".5124" stop-color="#64b5fd"/><stop offset=".6889" stop-color="#47a6fd"/><stop offset=".8653" stop-color="#2293fc"/><stop offset="1" stop-color="#0182fc"/></linearGradient><linearGradient id="lg6"><stop offset="0" stop-color="#0172fb" stop-opacity="0"/><stop offset=".1214" stop-color="#0172fb" stop-opacity=".017"/><stop offset=".2474" stop-color="#0172fb" stop-opacity=".066"/><stop offset=".3754" stop-color="#0172fb" stop-opacity=".149"/><stop offset=".5049" stop-color="#0172fb" stop-opacity=".265"/><stop offset=".6355" stop-color="#0172fb" stop-opacity=".414"/><stop offset=".7672" stop-color="#0172fb" stop-opacity=".598"/><stop offset=".897" stop-color="#0172fb" stop-opacity=".81"/><stop offset="1" stop-color="#0172fb"/></linearGradient><linearGradient id="SVGID_00000079484864961677525180000004444237003523935920_" gradientTransform="matrix(1 0 0 -1 0 514)" gradientUnits="userSpaceOnUse" x1="278.879" x2="292.225" xlink:href="#lg6" y1="44.782" y2="23.81"/><linearGradient id="SVGID_00000002381335101536471200000017745248747089856422_" gradientTransform="matrix(-1 0 0 -1 1478 514)" gradientUnits="userSpaceOnUse" x1="1249.217" x2="1262.562" xlink:href="#lg6" y1="37.966" y2="16.994"/><linearGradient id="SVGID_00000150820969187973844200000017156551316208945820_" gradientTransform="matrix(1 0 0 -1 0 514)" gradientUnits="userSpaceOnUse" x1="238.847" x2="256.17" xlink:href="#lg6" y1="105.119" y2="122.443"/><linearGradient id="lg7"><stop offset="0" stop-color="#fff" stop-opacity="0"/><stop offset=".1205" stop-color="#fff" stop-opacity=".016"/><stop offset=".2454" stop-color="#fff" stop-opacity=".065"/><stop offset=".3724" stop-color="#fff" stop-opacity=".147"/><stop offset=".5008" stop-color="#fff" stop-opacity=".261"/><stop offset=".6304" stop-color="#fff" stop-opacity=".408"/><stop offset=".761" stop-color="#fff" stop-opacity=".588"/><stop offset=".8898" stop-color="#fff" stop-opacity=".797"/><stop offset="1" stop-color="#fff"/></linearGradient><linearGradient id="SVGID_00000103943237748882636650000014156908912813628338_" gradientTransform="matrix(1 0 0 -1 0 514)" gradientUnits="userSpaceOnUse" x1="279.584" x2="272.812" xlink:href="#lg7" y1="115.835" y2="134.607"/><linearGradient id="SVGID_00000040557334830156648070000017076727126549214876_" gradientTransform="matrix(1 0 0 -1 0 514)" gradientUnits="userSpaceOnUse" x1="288.518" x2="298.17" xlink:href="#lg7" y1="33.926" y2="20.342"/><linearGradient id="lg8"><stop offset="0" stop-color="#c2fae3"/><stop offset=".1386" stop-color="#bdf9e1"/><stop offset=".2824" stop-color="#b1f9dd"/><stop offset=".4285" stop-color="#9cf8d7"/><stop offset=".5763" stop-color="#7ff7ce"/><stop offset=".7253" stop-color="#5af5c2"/><stop offset=".8732" stop-color="#2cf3b4"/><stop offset="1" stop-color="#00f2a6"/></linearGradient><linearGradient id="SVGID_00000077312646225456372050000013249214615325803925_" gradientTransform="matrix(1 0 0 -1 0 514)" gradientUnits="userSpaceOnUse" x1="413.04" x2="508.437" xlink:href="#lg8" y1="167.542" y2="167.542"/><linearGradient id="lg9"><stop offset="0" stop-color="#07b27b" stop-opacity="0"/><stop offset=".1449" stop-color="#07b27b" stop-opacity=".023"/><stop offset=".2951" stop-color="#07b27b" stop-opacity=".093"/><stop offset=".4478" stop-color="#07b27b" stop-opacity=".21"/><stop offset=".6022" stop-color="#07b27b" stop-opacity=".373"/><stop offset=".758" stop-color="#07b27b" stop-opacity=".584"/><stop offset=".9127" stop-color="#07b27b" stop-opacity=".837"/><stop offset="1" stop-color="#07b27b"/></linearGradient><linearGradient id="SVGID_00000024695505930688760880000009874507289642484134_" gradientTransform="matrix(0 -1 1 0 874 1388)" gradientUnits="userSpaceOnUse" x1="1140.334" x2="1133.68" xlink:href="#lg9" y1="-395.936" y2="-387.382"/><linearGradient id="SVGID_00000081614956657633386610000018179264823834550681_" gradientTransform="matrix(0 -1 1 0 874 1388)" gradientUnits="userSpaceOnUse" x1="1100.096" x2="1093.442" xlink:href="#lg9" y1="-427.233" y2="-418.678"/><linearGradient id="SVGID_00000163780530624287616020000012939441826959723700_" gradientTransform="matrix(1 0 0 -1 0 514)" gradientUnits="userSpaceOnUse" x1="-8.98" x2="70.874" xlink:href="#lg8" y1="167.542" y2="167.542"/><linearGradient id="SVGID_00000128455599532164749450000014921220300226374811_" gradientTransform="matrix(0 -1 1 0 874 1388)" gradientUnits="userSpaceOnUse" x1="940.246" x2="948.8" xlink:href="#lg9" y1="-836.416" y2="-848.298"/><linearGradient id="SVGID_00000072243465846128681560000005781149969071689383_" gradientTransform="matrix(0 -1 1 0 874 1388)" gradientUnits="userSpaceOnUse" x1="980.787" x2="989.342" xlink:href="#lg9" y1="-807.227" y2="-819.108"/><g><g><path d="m409.9 177.4c0-23.7-13.4-44.3-33.1-54.6 1.1-4.6 1.7-9.4 1.7-14.3 0-34.1-27.6-61.7-61.7-61.7-3.3 0-6.5.3-9.6.8-6.4-27.3-30.8-47.6-60-47.6-16.4 0-31.2 6.4-42.3 16.8-11-10.4-25.9-16.8-42.2-16.8-29.2 0-53.6 20.3-60 47.5-3.1-.5-6.4-.8-9.6-.8-34.1 0-61.7 27.6-61.7 61.7 0 4.9.6 9.7 1.7 14.3-19.7 10.4-33.1 30.9-33.1 54.7 0 18.4 8.1 35 21 46.3 8.7 10 21.7 17 34.8 18.2 99.4 8.9 198.9 8.9 298.4 0 13-.9 25.7-8.1 34.3-17.8 13.1-11.3 21.4-28.1 21.4-46.7z" fill="url(#SVGID_1_)"/><path d="m376.8 122.7c1.1-4.6 1.7-9.4 1.7-14.3 0-34.1-27.6-61.7-61.7-61.7-3.3 0-6.5.3-9.6.8-6.4-27.2-30.8-47.5-60-47.5-16.4 0-31.2 6.4-42.3 16.8-11-10.4-25.9-16.8-42.2-16.8-18.3 0-34.7 8-46 20.6v225.6c79.1 4.2 158.3 2.7 237.4-4.3 13-.9 25.7-8.1 34.3-17.8 13.1-11.3 21.4-28 21.4-46.7.1-23.8-13.3-44.3-33-54.7z" fill="url(#SVGID_00000036954938577081578120000015242588247725664670_)"/><path d="m458.5 345.3c-17.3-15.5-28.4-33.2-35.7-57.6-24.8 10.3-49.6 20.6-74.4 30.8 19.6 33.4 44.5 58.1 76.8 75 15.2 7.9 33.9 1 40.4-14.9l.2-.5c4.8-11.4 1.9-24.6-7.3-32.8z" fill="url(#SVGID_00000034788303003909609220000012128072634859076769_)"/><path d="m458.5 345.3c-17.3-15.5-28.4-33.2-35.7-57.6-24.8 10.3-49.6 20.6-74.4 30.8 19.6 33.4 44.5 58.1 76.8 75 15.2 7.9 33.9 1 40.4-14.9l.2-.5c4.8-11.4 1.9-24.6-7.3-32.8z" fill="url(#SVGID_00000150805783738256563970000010259398990424019329_)"/><g><path d="m512 240.3c0-29-16.4-54.2-40.4-66.8 1.3-5.6 2.1-11.5 2.1-17.5 0-41.6-33.7-75.4-75.4-75.4-4 0-7.9.3-11.8.9-7.8-33.3-37.7-58.1-73.4-58.1-20 0-38.2 7.8-51.6 20.5-13.5-12.7-31.7-20.5-51.6-20.5-35.7 0-65.5 24.8-73.4 58.1-3.8-.6-7.8-.9-11.8-.9-41.6 0-75.4 33.7-75.4 75.4 0 6 .7 11.9 2.1 17.5-24 12.6-40.4 37.8-40.4 66.8 0 22.5 9.9 42.8 25.6 56.6 10.6 12.2 26.5 20.7 42.5 22.3 121.5 10.8 243.1 10.8 364.7 0 15.9-1.1 31.4-9.9 42-21.8 16-13.8 26.2-34.2 26.2-57.1z" fill="url(#SVGID_00000044143056833578042440000001276596392845326488_)"/><path d="m512 240.3c0 22.8-10.2 43.3-26.2 57.1-10.5 11.8-26.1 20.7-42 21.8-121.5 10.8-243.2 10.8-364.7 0-16-1.6-31.9-10.1-42.5-22.3-15.7-13.8-25.6-34-25.6-56.6 0-17.8 6.1-34.1 16.5-47h468c10.3 13 16.5 29.3 16.5 47z" fill="url(#SVGID_00000100365256004362929470000005758643716379331203_)"/><path d="m484.9 236.2-51.1 59.5 21.4 21.4c11.7-3.5 22.6-10.7 30.6-19.7 11.1-9.6 19.4-22.3 23.4-36.9z" fill="url(#SVGID_00000104675985257541907370000010910679899203323779_)"/><path d="m140.8 323.8-87.9-87.9-35.3 35.3c4.4 9.9 11 18.7 19 25.8 10.6 12.2 26.5 20.7 42.5 22.3 20.6 1.7 41.2 3.3 61.7 4.5z" fill="url(#SVGID_00000155109970065993322220000006793638643818664576_)"/><path d="m285.3 98.9c0 41.6-33.7 75.4-75.4 75.4-4 0-7.9-.3-11.7-.9 1.3-5.6 2-11.4 2-17.3 0-37.6-27.6-68.8-63.6-74.5 7.8-33.3 37.7-58.1 73.4-58.1 41.5.1 75.3 33.8 75.3 75.4z" fill="url(#SVGID_00000023265563679647484370000009790588628086834078_)"/><path d="m200.2 156.1c0 29-16.4 54.2-40.4 66.8-7.9-33.2-37.8-57.9-73.4-57.9-12.6 0-24.5 3.1-35 8.6-1.3-5.6-2-11.5-2-17.5 0-41.6 33.7-75.4 75.4-75.4 41.6 0 75.4 33.7 75.4 75.4z" fill="url(#SVGID_00000023275818064119085160000004142606753090030755_)"/><circle cx="313.2" cy="98.9" fill="url(#SVGID_00000003097787147911936120000011157591607551359371_)" r="75.4"/><path d="m473.7 156.1c0 6-.7 11.9-2 17.5-10.5-5.5-22.4-8.6-35-8.6-35.6 0-65.4 24.7-73.3 57.9-24-12.6-40.4-37.8-40.4-66.8 0-41.6 33.8-75.4 75.4-75.4 41.5 0 75.3 33.7 75.3 75.4z" fill="url(#SVGID_00000078030265824458374840000007517360578193909124_)"/><path d="m473.7 156.1c0 41.6-33.7 75.4-75.4 75.4-35.7 0-65.5-24.8-73.4-58.1 36.1-5.6 63.6-36.8 63.6-74.5 0-6-.7-11.8-2-17.3 3.8-.6 7.7-.9 11.7-.9 41.7 0 75.5 33.7 75.5 75.4z" fill="url(#SVGID_00000182509436014257651400000005268047135192063384_)"/><path d="m261.5 153.8c-13.5 12.7-31.7 20.5-51.6 20.5-4 0-7.9-.3-11.7-.9 1.3-5.6 2-11.4 2-17.3 0-37.6-27.6-68.8-63.6-74.5 7.8-33.3 37.7-58.1 73.4-58.1 20 0 38.2 7.8 51.6 20.5-14.6 13.7-23.7 33.3-23.7 54.9s9 41.2 23.6 54.9z" fill="url(#SVGID_00000098906561814237171080000001530810013824746128_)"/></g><g><circle cx="293.3" cy="248.6" fill="url(#SVGID_00000053516503577105477170000002980102773933146281_)" r="75.4"/><path d="m241.7 303.4c-13.5 12.7-31.7 20.5-51.6 20.5-4 0-7.9-.3-11.7-.9 1.3-5.6 2-11.4 2-17.3 0-37.6-27.6-68.8-63.6-74.5 7.8-33.3 37.7-58.1 73.4-58.1 20 0 38.2 7.8 51.6 20.5-14.6 13.7-23.7 33.3-23.7 54.9s9 41.2 23.6 54.9z" fill="url(#SVGID_00000111902115803093316650000002952367439391017909_)"/></g></g><path d="m256 211.1c-38 0-68.7 30.8-68.7 68.7s30.8 68.7 68.7 68.7 68.7-30.8 68.7-68.7-30.7-68.7-68.7-68.7z" fill="url(#SVGID_00000139287876228311814900000016782360867496391604_)"/><path d="m256 211.1c-38 0-68.7 30.8-68.7 68.7s30.8 68.7 68.7 68.7 68.7-30.8 68.7-68.7-30.7-68.7-68.7-68.7z" fill="url(#SVGID_00000015356653873366555530000013216348417684854707_)"/><path d="m267.2 19.3-13.8 153.9v38h2.6c38 0 68.7 30.8 68.7 68.7 0 18.2-7.1 34.7-18.6 47 45.9-1 91.8-3.5 137.7-7.6 15.9-1.1 31.4-9.9 42-21.8 10.9-9.4 19.1-22 23.2-36.2z" fill="url(#SVGID_00000176024845889046792350000006232707725980416173_)"/><path d="m466.2 312.7c-7 3.6-14.6 6-22.3 6.5-45.9 4.1-91.8 6.6-137.7 7.6 11.5-12.3 18.6-28.8 18.6-47 0-15.2-4.9-29.2-13.3-40.6l40.7-40.7z" fill="url(#SVGID_00000062904706211217986160000014895251759946531748_)"/><g><path d="m368.7 308.4-21.2-12.3c.9-5.3 1.4-10.7 1.4-16.3s-.5-11-1.4-16.3l21.2-12.3c5.9-3.4 7.9-11 4.5-16.9l-19.2-33.3c-3.4-5.9-11-7.9-16.9-4.5l-21.2 12.3c-8.3-7-17.8-12.6-28.2-16.3v-24.5c0-6.8-5.5-12.4-12.4-12.4h-38.5c-6.8 0-12.4 5.5-12.4 12.4v24.5c-10.4 3.8-19.9 9.3-28.2 16.3l-21.2-12.3c-5.9-3.4-13.5-1.4-16.9 4.5l-19.3 33.4c-3.4 5.9-1.4 13.5 4.5 16.9l21.2 12.3c-.9 5.3-1.4 10.7-1.4 16.3s.5 11 1.4 16.3l-21.2 12.3c-5.9 3.4-7.9 11-4.5 16.9l19.3 33.4c3.4 5.9 11 7.9 16.9 4.5l21.2-12.3c8.3 7 17.8 12.6 28.2 16.3v24.5c0 6.8 5.5 12.4 12.4 12.4h38.5c6.8 0 12.4-5.5 12.4-12.4v-24.5c10.4-3.8 19.9-9.3 28.2-16.3l21.2 12.3c5.9 3.4 13.5 1.4 16.9-4.5l19.3-33.4c3.3-6 1.3-13.6-4.6-17zm-112.7 19.6c-26.6 0-48.2-21.6-48.2-48.2s21.6-48.2 48.2-48.2 48.2 21.6 48.2 48.2-21.6 48.2-48.2 48.2z" fill="url(#SVGID_00000170987883467043865220000003627452256193384869_)"/><path d="m256 211.1c-38 0-68.7 30.8-68.7 68.7s30.8 68.7 68.7 68.7 68.7-30.8 68.7-68.7-30.7-68.7-68.7-68.7zm0 113.6c-24.8 0-44.9-20.1-44.9-44.9s20.1-44.8 44.9-44.8 44.9 20.1 44.9 44.9c0 24.7-20.1 44.8-44.9 44.8z" fill="url(#SVGID_00000038399267006001856500000016110402443963625138_)"/><path d="m373.2 234.4-19.2-33.4c-3.4-5.9-11-7.9-16.9-4.5l-21.2 12.3c-8.3-7-17.8-12.6-28.2-16.3v-24.5c0-6.8-5.5-12.4-12.4-12.4h-30.1v50.5l38.3 38.3c3 2.3 5.6 5 7.9 7.9l78.6 78.6 3.2-5.6c3.4-5.9 1.4-13.5-4.5-16.9l-21.2-12.3c.9-5.3 1.4-10.7 1.4-16.3s-.5-11-1.4-16.3l21.2-12.3c5.9-3.3 7.9-10.9 4.5-16.8z" fill="url(#SVGID_00000084489447163564892710000010383081181867653764_)"/><g><path d="m164.5 296.1-21.2 12.2c-5.9 3.4-7.9 11-4.5 16.9l19.3 33.4c3.4 5.9 11 7.9 16.9 4.5l21.2-12.3c-16.3-13.6-27.8-32.8-31.7-54.7z" fill="url(#SVGID_00000101811257690400784690000000095971005851105956_)"/><path d="m164.5 296.1-21.2 12.2c-5.9 3.4-7.9 11-4.5 16.9l19.3 33.4c3.4 5.9 11 7.9 16.9 4.5l21.2-12.3c-16.3-13.6-27.8-32.8-31.7-54.7z" fill="url(#SVGID_00000134957796280551319450000008749395491056798876_)"/><path d="m373.2 234.4-19.2-33.4c-3.4-5.9-11-7.9-16.9-4.5l-21.2 12.3c16.3 13.7 27.8 32.9 31.6 54.8l21.2-12.2c5.9-3.5 7.9-11.1 4.5-17z" fill="url(#SVGID_00000075879818246611543660000007032056424094767510_)"/></g><g><path d="m256 186.9c11.1 0 21.8 2 31.6 5.5v-24.4c0-6.8-5.5-12.4-12.4-12.4h-38.5c-6.8 0-12.4 5.5-12.4 12.4v24.5c9.9-3.6 20.6-5.6 31.7-5.6z" fill="url(#SVGID_00000033350086482680188200000003858156462951857551_)"/><path d="m256 372.8c-11.1 0-21.8-2-31.6-5.5v24.5c0 6.8 5.5 12.4 12.4 12.4h38.5c6.8 0 12.4-5.5 12.4-12.4v-24.5c-9.9 3.5-20.6 5.5-31.7 5.5z" fill="url(#SVGID_00000065053442331715135190000006053023527694416010_)"/><path d="m256 372.8c-11.1 0-21.8-2-31.6-5.5v24.5c0 6.8 5.5 12.4 12.4 12.4h38.5c6.8 0 12.4-5.5 12.4-12.4v-24.5c-9.9 3.5-20.6 5.5-31.7 5.5z" fill="url(#SVGID_00000158006545509713232870000001239950607368911516_)"/></g><g><path d="m196.2 208.8-21.2-12.3c-5.9-3.4-13.5-1.4-16.9 4.5l-19.3 33.4c-3.4 5.9-1.4 13.5 4.5 16.9l21.2 12.2c3.9-21.8 15.4-41 31.7-54.7z" fill="url(#SVGID_00000048464559757786334910000007950095860380806549_)"/><path d="m368.7 308.4-21.2-12.2c-3.9 21.8-15.4 41.1-31.6 54.8l21.2 12.3c5.9 3.4 13.5 1.4 16.9-4.5l19.3-33.4c3.3-6 1.3-13.6-4.6-17z" fill="url(#SVGID_00000182499752684864402910000001286601499435192745_)"/><path d="m368.7 308.4-21.2-12.2c-3.9 21.8-15.4 41.1-31.6 54.8l21.2 12.3c5.9 3.4 13.5 1.4 16.9-4.5l19.3-33.4c3.3-6 1.3-13.6-4.6-17z" fill="url(#SVGID_00000080196819051062917840000013430314938606532030_)"/></g></g><g><path d="m296.9 85.7-21 10.6c-1.9 1-4.2-.4-4.3-2.5l-3.5-72.5c-.2-3.1-4.4-3.9-5.6-1.1l-51.5 115.4c-1.1 2.5 1.5 5.1 4 3.8l21-10.6c1.9-1 4.2.4 4.3 2.5l3.5 72.5c.2 3.1 4.4 3.9 5.6 1.1l51.6-115.4c1.1-2.5-1.6-5.1-4.1-3.8z" fill="url(#SVGID_00000031901950696830175230000017233587926004718509_)"/><path d="m249.5 204.9 51.5-115.4c1.1-2.5-1.5-5.1-4-3.8l-21 10.6c-1.9 1-4.2-.4-4.3-2.5l-3.5-72.5c-.1-1.6-1.3-2.6-2.6-2.8l-15.7 76.6c-1.4 7.1.7 14.4 5.8 19.5 5.1 5.1 7.3 12.4 5.8 19.5l-15 72.4c1.1.2 2.4-.3 3-1.6z" fill="url(#SVGID_00000034070891299659993610000010879383219852987523_)"/><path d="m249.5 204.9 51.5-115.4c1.1-2.5-1.5-5.1-4-3.8l-21 10.6c-1.9 1-4.2-.4-4.3-2.5l-3.5-72.5c-.1-1.6-1.3-2.6-2.6-2.8l-15.7 76.6c-1.4 7.1.7 14.4 5.8 19.5 5.1 5.1 7.3 12.4 5.8 19.5l-15 72.4c1.1.2 2.4-.3 3-1.6z" fill="url(#SVGID_00000083070190500506987480000005467178787193807544_)"/></g><g><path d="m330.9 427.1c0-.3 0-.6 0-.8 0-.4 0-.9 0-1.3 0-23.1-18.7-41.7-41.7-41.7-13.6 0-25.6 6.5-33.3 16.5-7.6-10-19.7-16.5-33.3-16.5-23.1 0-41.7 18.7-41.7 41.7v1.3.8c1.5 32.5 35.7 65.4 70.3 83.7 2.9 1.5 6.4 1.5 9.3 0 34.8-18.3 69-51.2 70.4-83.7z" fill="url(#SVGID_00000067203319432654305820000004428676315402223001_)"/><path d="m181 425v1.3.8c1.5 32.5 35.7 65.4 70.3 83.7 2.9 1.5 6.4 1.5 9.3 0 34.6-18.3 68.8-51.2 70.3-83.7 0-.3 0-.6 0-.8 0-.4 0-.9 0-1.3z" fill="url(#SVGID_00000079484864961677525180000004444237003523935920_)"/><path d="m331 425v1.3.8c-1.5 32.5-35.7 65.4-70.3 83.7-2.9 1.5-6.4 1.5-9.3 0-34.6-18.3-68.8-51.2-70.3-83.7 0-.3 0-.6 0-.8 0-.4 0-.9 0-1.3z" fill="url(#SVGID_00000002381335101536471200000017745248747089856422_)"/><path d="m247.5 425c0 9.5 3.2 18.2 8.5 25.2-7.6 10-19.7 16.5-33.3 16.5-23.1 0-41.7-18.7-41.7-41.7 0-23.1 18.7-41.7 41.7-41.7 13.6 0 25.6 6.5 33.3 16.5-5.3 7-8.5 15.7-8.5 25.2z" fill="url(#SVGID_00000150820969187973844200000017156551316208945820_)"/><circle cx="289.3" cy="425" fill="url(#SVGID_00000103943237748882636650000014156908912813628338_)" r="41.7"/><path d="m331 425v1.3.8c-1.5 32.5-35.7 65.4-70.3 83.7-2.9 1.5-6.4 1.5-9.3 0-34.6-18.3-68.8-51.2-70.3-83.7 0-.3 0-.6 0-.8 0-.4 0-.9 0-1.3z" fill="url(#SVGID_00000040557334830156648070000017076727126549214876_)"/></g><g><g><path d="m458.2 439.5c36.3-45.8 35.6-109.2 2.1-153.9l-6.8 8.5c-7 8.9-21.2 5.7-23.7-5.4l-9.2-40.1c-1.9-8.4 4.4-16.4 13.1-16.5l41.2-.3c11.3-.1 17.7 13 10.7 21.9l-8.2 10.4c44.7 54.4 47.2 134.5 1.8 191.9-4.6 5.8-12.9 6.7-18.7 2.2-5.9-4.6-6.9-12.9-2.3-18.7z" fill="url(#SVGID_00000077312646225456372050000013249214615325803925_)"/><path d="m474.9 231.8c11.3-.1 17.7 13 10.7 21.9l-8.2 10.4s-14.8-16.6-32.3-32.1z" fill="url(#SVGID_00000024695505930688760880000009874507289642484134_)"/><path d="m460.3 285.6-6.8 8.5c-7 8.9-21.2 5.7-23.7-5.4l-8.9-38.9c24.8 20.3 39.4 35.8 39.4 35.8z" fill="url(#SVGID_00000081614956657633386610000018179264823834550681_)"/></g><g><path d="m53.8 253.4c-36.3 45.8-35.6 109.2-2.1 153.9l6.8-8.5c7-8.9 21.2-5.7 23.7 5.4l9.2 40.1c1.9 8.4-4.4 16.4-13.1 16.5l-41.2.3c-11.3.1-17.7-13-10.7-21.9l8.2-10.4c-44.7-54.4-47.2-134.5-1.8-191.9 4.6-5.8 12.9-6.7 18.7-2.2 5.9 4.6 6.9 12.9 2.3 18.7z" fill="url(#SVGID_00000163780530624287616020000012939441826959723700_)"/><path d="m37.1 461.1c-11.3.1-17.7-13-10.7-21.9l8.2-10.4s14.8 16.6 32.3 32.1z" fill="url(#SVGID_00000128455599532164749450000014921220300226374811_)"/><path d="m51.7 407.3 6.8-8.5c7-8.9 21.2-5.7 23.7 5.4l8.9 38.9c-24.8-20.3-39.4-35.8-39.4-35.8z" fill="url(#SVGID_00000072243465846128681560000005781149969071689383_)"/></g></g></g></svg>