<svg id="Capa_1" enable-background="new 0 0 512 512" viewBox="0 0 512 512" xmlns="http://www.w3.org/2000/svg" xmlns:xlink="http://www.w3.org/1999/xlink"><linearGradient id="lg1"><stop offset="0" stop-color="#f5fbff"/><stop offset="1" stop-color="#dbd5ef"/></linearGradient><linearGradient id="SVGID_1_" gradientUnits="userSpaceOnUse" x1="97.423" x2="360.07" xlink:href="#lg1" y1="138.556" y2="401.204"/><linearGradient id="SVGID_00000111186886487955026000000012375905804992927650_" gradientUnits="userSpaceOnUse" x1="318.476" x2="102.358" xlink:href="#lg1" y1="359.61" y2="143.492"/><linearGradient id="lg2"><stop offset="0" stop-color="#dbd5ef" stop-opacity="0"/><stop offset=".2853" stop-color="#d9d2ee" stop-opacity=".285"/><stop offset=".4739" stop-color="#d4c9e9" stop-opacity=".474"/><stop offset=".6346" stop-color="#cbbae2" stop-opacity=".635"/><stop offset=".7795" stop-color="#bfa5d7" stop-opacity=".78"/><stop offset=".9126" stop-color="#af8aca" stop-opacity=".913"/><stop offset="1" stop-color="#a274bf"/></linearGradient><linearGradient id="SVGID_00000100340732623541485490000001852927835735257745_" gradientUnits="userSpaceOnUse" x1="56.326" x2="75.217" xlink:href="#lg2" y1="362.575" y2="400.898"/><linearGradient id="SVGID_00000160883560641221579870000000630601973059066279_" gradientUnits="userSpaceOnUse" x1="55.561" x2="19.397" xlink:href="#lg2" y1="345.772" y2="380.317"/><linearGradient id="SVGID_00000152987202856647696600000003487369979907731597_" gradientUnits="userSpaceOnUse" x1="380.993" x2="405.282" xlink:href="#lg2" y1="166.264" y2="209.446"/><linearGradient id="SVGID_00000072996865634883040210000011498861563017567622_" gradientUnits="userSpaceOnUse" x1="221.12" x2="274.061" xlink:href="#lg2" y1="64.555" y2="64.555"/><linearGradient id="SVGID_00000021820477302618843640000012047726836912395669_" gradientUnits="userSpaceOnUse" x1="221.12" x2="274.061" xlink:href="#lg2" y1="443.827" y2="443.827"/><linearGradient id="SVGID_00000039102232041314069200000013807175908919333760_" gradientUnits="userSpaceOnUse" x1="213.058" x2="213.058" xlink:href="#lg2" y1="429.423" y2="477.119"/><linearGradient id="SVGID_00000163779431842653619490000008759860404615113631_" gradientUnits="userSpaceOnUse" x1="45.5" x2="17.567" xlink:href="#lg2" y1="165.38" y2="214.363"/><linearGradient id="SVGID_00000126281990397130201920000012385045547403105697_" gradientUnits="userSpaceOnUse" x1="366.404" x2="407.291" xlink:href="#lg2" y1="342.675" y2="367.774"/><linearGradient id="SVGID_00000060013056543644128240000004875358829466029234_" gradientUnits="userSpaceOnUse" x1="369.108" x2="349.272" xlink:href="#lg2" y1="363.35" y2="399.38"/><linearGradient id="SVGID_00000070797073813123588240000000601613407270955174_" gradientUnits="userSpaceOnUse" x1="437.338" x2="196.898" xlink:href="#lg2" y1="478.472" y2="238.032"/><linearGradient id="SVGID_00000004525582327203626900000002034997067265737860_" gradientUnits="userSpaceOnUse" x1="397.004" x2="349.365" xlink:href="#lg2" y1="352.51" y2="362.038"/><linearGradient id="SVGID_00000140706914477664589910000016555467028050480052_" gradientUnits="userSpaceOnUse" x1="404.871" x2="363.095" xlink:href="#lg2" y1="371.372" y2="327.398"/><linearGradient id="SVGID_00000084530952385431684860000002042711175313017733_" gradientUnits="userSpaceOnUse" x1="155.799" x2="273.036" xlink:href="#lg1" y1="196.933" y2="314.17"/><linearGradient id="SVGID_00000147938281472074418930000012133496571680988328_" gradientUnits="userSpaceOnUse" x1="219.518" x2="233.009" xlink:href="#lg2" y1="291.638" y2="369.744"/><linearGradient id="SVGID_00000046301125189551535350000002241514835142690947_" gradientUnits="userSpaceOnUse" x1="238.701" x2="305.447" xlink:href="#lg2" y1="265.865" y2="308.469"/><linearGradient id="lg3"><stop offset="0" stop-color="#b3dafe"/><stop offset="1" stop-color="#0182fc"/></linearGradient><linearGradient id="SVGID_00000071517229190410742870000015364566798996536480_" gradientUnits="userSpaceOnUse" x1="329.858" x2="469.938" xlink:href="#lg3" y1="293.097" y2="433.177"/><linearGradient id="SVGID_00000058563336657842688710000017617642998951592076_" gradientUnits="userSpaceOnUse" x1="444.414" x2="345.235" xlink:href="#lg3" y1="407.654" y2="308.474"/><linearGradient id="lg4"><stop offset="0" stop-color="#314dc9" stop-opacity="0"/><stop offset=".2761" stop-color="#304bc4" stop-opacity=".276"/><stop offset=".5628" stop-color="#2b45b8" stop-opacity=".563"/><stop offset=".8535" stop-color="#243ba3" stop-opacity=".854"/><stop offset="1" stop-color="#1f3596"/></linearGradient><linearGradient id="SVGID_00000060004198742617016780000006207746243993629088_" gradientUnits="userSpaceOnUse" x1="310.73" x2="321.012" xlink:href="#lg4" y1="418.267" y2="439.126"/><linearGradient id="SVGID_00000078765255591844505220000007688144707024728745_" gradientUnits="userSpaceOnUse" x1="310.313" x2="290.63" xlink:href="#lg4" y1="409.121" y2="427.924"/><linearGradient id="SVGID_00000178917778810020225940000013135264324524137395_" gradientUnits="userSpaceOnUse" x1="487.441" x2="500.661" xlink:href="#lg4" y1="311.418" y2="334.921"/><linearGradient id="SVGID_00000014600547820617109700000011308642493814626488_" gradientUnits="userSpaceOnUse" x1="400.425" x2="429.24" xlink:href="#lg4" y1="256.06" y2="256.06"/><linearGradient id="SVGID_00000072985558613260575210000003002419631785340062_" gradientUnits="userSpaceOnUse" x1="400.425" x2="429.24" xlink:href="#lg4" y1="462.491" y2="462.491"/><linearGradient id="SVGID_00000174589326202788040560000011312309637039682488_" gradientUnits="userSpaceOnUse" x1="396.036" x2="396.036" xlink:href="#lg4" y1="454.652" y2="480.611"/><linearGradient id="SVGID_00000158728617571271236680000005111295658563425209_" gradientUnits="userSpaceOnUse" x1="304.837" x2="289.634" xlink:href="#lg4" y1="310.937" y2="337.598"/><linearGradient id="SVGID_00000173881253805305542060000003235504134780421545_" gradientUnits="userSpaceOnUse" x1="479.5" x2="501.755" xlink:href="#lg4" y1="407.436" y2="421.097"/><linearGradient id="SVGID_00000039851817953695726040000017606517545447482530_" gradientUnits="userSpaceOnUse" x1="480.972" x2="470.176" xlink:href="#lg4" y1="418.689" y2="438.299"/><g><g><g><path d="m415.029 305.357-38.002-21.954c1.67-9.484 2.555-19.24 2.555-29.212s-.886-19.728-2.555-29.212l38.002-21.954c10.596-6.11 14.231-19.66 8.109-30.256l-34.515-59.809c-6.122-10.596-19.671-14.22-30.268-8.109l-38.048 21.965c-14.855-12.527-31.937-22.499-50.564-29.246v-43.873c0-12.243-9.926-22.159-22.159-22.159h-69.054c-12.232 0-22.158 9.915-22.158 22.159v43.874c-18.627 6.746-35.708 16.718-50.564 29.246l-38.048-21.965c-10.597-6.11-24.146-2.487-30.268 8.109l-34.515 59.808c-6.122 10.597-2.487 24.146 8.109 30.256l38.002 21.954c-1.67 9.484-2.555 19.24-2.555 29.212s.886 19.728 2.555 29.212l-38.002 21.954c-10.596 6.11-14.231 19.66-8.109 30.256l34.515 59.809c6.122 10.597 19.671 14.22 30.268 8.109l38.048-21.966c14.856 12.527 31.937 22.499 50.564 29.246v43.874c0 12.243 9.926 22.159 22.158 22.159h69.054c12.232 0 22.159-9.915 22.159-22.159v-43.874c18.627-6.746 35.708-16.718 50.564-29.246l38.048 21.966c10.597 6.11 24.146 2.487 30.268-8.109l34.515-59.809c6.121-10.596 2.487-24.146-8.109-30.256zm-201.972 35.129c-47.656 0-86.295-38.638-86.295-86.295s38.638-86.295 86.295-86.295 86.295 38.638 86.295 86.295-38.638 86.295-86.295 86.295z" fill="url(#SVGID_1_)"/><path d="m213.057 108.152c-80.66 0-146.039 65.379-146.039 146.039s65.38 146.039 146.039 146.039 146.039-65.379 146.039-146.039-65.379-146.039-146.039-146.039zm0 226.43c-44.396 0-80.391-35.995-80.391-80.391s35.995-80.391 80.391-80.391 80.391 35.995 80.391 80.391-35.995 80.391-80.391 80.391z" fill="url(#SVGID_00000111186886487955026000000012375905804992927650_)"/><g><path d="m49.094 283.406-38.012 21.946c-10.597 6.118-14.228 19.668-8.11 30.265l34.525 59.799c6.118 10.597 19.668 14.228 30.265 8.11l38.043-21.964c-29.171-24.588-49.782-59.006-56.711-98.156z" fill="url(#SVGID_00000100340732623541485490000001852927835735257745_)"/><path d="m49.094 283.406-38.012 21.946c-10.597 6.118-14.228 19.668-8.11 30.265l34.525 59.799c6.118 10.597 19.668 14.228 30.265 8.11l38.043-21.964c-29.171-24.588-49.782-59.006-56.711-98.156z" fill="url(#SVGID_00000160883560641221579870000000630601973059066279_)"/><path d="m423.143 172.764-34.525-59.799c-6.118-10.597-19.668-14.227-30.265-8.109l-38.043 21.964c29.171 24.588 49.782 59.007 56.711 98.156l38.012-21.947c10.597-6.118 14.228-19.668 8.11-30.265z" fill="url(#SVGID_00000152987202856647696600000003487369979907731597_)"/></g><g><path d="m213.057 87.67c19.903 0 38.988 3.498 56.681 9.902v-43.878c0-12.236-9.919-22.156-22.156-22.156h-69.05c-12.236 0-22.156 9.919-22.156 22.156v43.878c17.694-6.404 36.778-9.902 56.681-9.902z" fill="url(#SVGID_00000072996865634883040210000011498861563017567622_)"/><path d="m213.057 420.712c-19.903 0-38.988-3.498-56.681-9.902v43.878c0 12.236 9.919 22.156 22.156 22.156h69.05c12.236 0 22.156-9.919 22.156-22.156v-43.878c-17.693 6.405-36.777 9.902-56.681 9.902z" fill="url(#SVGID_00000021820477302618843640000012047726836912395669_)"/><path d="m213.057 420.712c-19.903 0-38.988-3.498-56.681-9.902v43.878c0 12.236 9.919 22.156 22.156 22.156h69.05c12.236 0 22.156-9.919 22.156-22.156v-43.878c-17.693 6.405-36.777 9.902-56.681 9.902z" fill="url(#SVGID_00000039102232041314069200000013807175908919333760_)"/></g><g><path d="m105.805 126.82-38.043-21.964c-10.597-6.118-24.147-2.487-30.265 8.109l-34.525 59.799c-6.118 10.597-2.487 24.147 8.11 30.265l38.012 21.947c6.929-39.149 27.54-73.568 56.711-98.156z" fill="url(#SVGID_00000163779431842653619490000008759860404615113631_)"/><path d="m415.033 305.353-38.012-21.946c-6.929 39.149-27.54 73.568-56.711 98.156l38.043 21.964c10.597 6.118 24.147 2.487 30.265-8.11l34.525-59.799c6.118-10.597 2.487-24.147-8.11-30.265z" fill="url(#SVGID_00000126281990397130201920000012385045547403105697_)"/><path d="m415.033 305.353-38.012-21.946c-6.929 39.149-27.54 73.568-56.711 98.156l38.043 21.964c10.597 6.118 24.147 2.487 30.265-8.11l34.525-59.799c6.118-10.597 2.487-24.147-8.11-30.265z" fill="url(#SVGID_00000060013056543644128240000004875358829466029234_)"/></g></g><path d="m358.354 403.531c10.597 6.11 24.146 2.487 30.268-8.109l34.515-59.809c6.122-10.596 2.487-24.146-8.109-30.256l-38.002-21.954c1.205-6.846 1.995-13.837 2.345-20.946l-87.29-87.29-18.006 18.006c15.617 15.617 25.276 37.19 25.276 61.018 0 47.656-38.639 86.295-86.295 86.295-23.828 0-45.402-9.66-61.018-25.276l-18.006 18.006 132.669 132.669c1.929-3.286 3.04-7.111 3.04-11.199v-43.874c18.627-6.746 35.708-16.718 50.564-29.246z" fill="url(#SVGID_00000070797073813123588240000000601613407270955174_)"/><path d="m344.773 362.56c0 16.991 7.176 32.297 18.649 43.084 9.527 2.691 20.02-1.256 25.2-10.222l34.515-59.809c6.122-10.596 2.487-24.146-8.109-30.256l-2.195-1.268c-2.909-.44-5.888-.67-8.919-.67-32.662 0-59.141 26.478-59.141 59.141z" fill="url(#SVGID_00000004525582327203626900000002034997067265737860_)"/><path d="m344.773 362.56c0 16.991 7.176 32.297 18.649 43.084 9.527 2.691 20.02-1.256 25.2-10.222l34.515-59.809c6.122-10.596 2.487-24.146-8.109-30.256l-2.195-1.268c-2.909-.44-5.888-.67-8.919-.67-32.662 0-59.141 26.478-59.141 59.141z" fill="url(#SVGID_00000140706914477664589910000016555467028050480052_)"/><g><path d="m134.033 175.167c-43.646 43.646-43.646 114.402 0 158.048s114.402 43.646 158.048 0 43.646-114.402 0-158.048-114.401-43.646-158.048 0zm122.525 122.525c-24.023 24.023-62.979 24.023-87.002 0s-24.023-62.979 0-87.002 62.979-24.023 87.002 0 24.024 62.979 0 87.002z" fill="url(#SVGID_00000084530952385431684860000002042711175313017733_)"/><path d="m256.558 297.692c-24.023 24.024-62.978 24.024-87.002 0-16.498-16.498-21.664-40.037-15.503-60.947h-51.385c-5.36 34.096 5.089 70.195 31.364 96.47 43.646 43.647 114.402 43.647 158.048 0 26.275-26.275 36.725-62.374 31.365-96.47h-51.385c6.163 20.91.996 44.449-15.502 60.947z" fill="url(#SVGID_00000147938281472074418930000012133496571680988328_)"/><path d="m191.963 144.433v51.969c21.775-7.931 47.13-3.177 64.596 14.289 24.024 24.023 24.024 62.979 0 87.002-17.466 17.466-42.821 22.22-64.596 14.289v51.968c35.15 6.723 72.904-3.519 100.119-30.734 43.647-43.646 43.647-114.402 0-158.048-27.215-27.216-64.969-37.459-100.119-30.735z" fill="url(#SVGID_00000046301125189551535350000002241514835142690947_)"/></g></g><g><g><path d="m505.966 387.124-20.684-11.949c.909-5.162 1.391-10.472 1.391-15.899 0-5.428-.482-10.738-1.391-15.899l20.684-11.949c5.767-3.326 7.746-10.701 4.414-16.468l-18.786-32.553c-3.332-5.767-10.707-7.739-16.474-4.414l-20.709 11.955c-8.086-6.818-17.383-12.246-27.521-15.918v-23.88c0-6.664-5.403-12.061-12.061-12.061h-37.585c-6.658 0-12.06 5.397-12.06 12.061v23.88c-10.138 3.672-19.435 9.1-27.521 15.918l-20.709-11.955c-5.768-3.326-13.142-1.354-16.474 4.414l-18.786 32.553c-3.332 5.768-1.354 13.142 4.414 16.468l20.684 11.949c-.909 5.162-1.391 10.472-1.391 15.899 0 5.428.482 10.738 1.391 15.899l-20.684 11.949c-5.767 3.326-7.746 10.701-4.414 16.468l18.786 32.553c3.332 5.768 10.707 7.74 16.474 4.414l20.709-11.956c8.086 6.818 17.383 12.246 27.521 15.918v23.88c0 6.664 5.403 12.061 12.06 12.061h37.585c6.658 0 12.061-5.397 12.061-12.061v-23.88c10.138-3.672 19.435-9.099 27.521-15.918l20.709 11.956c5.768 3.326 13.142 1.354 16.474-4.414l18.786-32.553c3.331-5.767 1.353-13.142-4.414-16.468zm-109.93 19.12c-25.939 0-46.969-21.03-46.969-46.969s21.03-46.969 46.969-46.969 46.969 21.03 46.969 46.969-21.03 46.969-46.969 46.969z" fill="url(#SVGID_00000071517229190410742870000015364566798996536480_)"/><path d="m396.036 292.256c-37.016 0-67.019 30.003-67.019 67.019s30.003 67.019 67.019 67.019 67.019-30.003 67.019-67.019-30.003-67.019-67.019-67.019zm0 110.775c-24.164 0-43.756-19.592-43.756-43.756s19.592-43.756 43.756-43.756 43.756 19.592 43.756 43.756-19.592 43.756-43.756 43.756z" fill="url(#SVGID_00000058563336657842688710000017617642998951592076_)"/><g><path d="m306.793 375.177-20.689 11.945c-5.768 3.33-7.744 10.705-4.414 16.473l18.792 32.548c3.33 5.768 10.705 7.744 16.473 4.414l20.706-11.955c-15.878-13.384-27.096-32.117-30.868-53.425z" fill="url(#SVGID_00000060004198742617016780000006207746243993629088_)"/><path d="m306.793 375.177-20.689 11.945c-5.768 3.33-7.744 10.705-4.414 16.473l18.792 32.548c3.33 5.768 10.705 7.744 16.473 4.414l20.706-11.955c-15.878-13.384-27.096-32.117-30.868-53.425z" fill="url(#SVGID_00000078765255591844505220000007688144707024728745_)"/><path d="m510.382 314.956-18.792-32.548c-3.33-5.768-10.705-7.744-16.473-4.414l-20.706 11.955c15.877 13.383 27.096 32.116 30.867 53.425l20.689-11.945c5.769-3.33 7.745-10.705 4.415-16.473z" fill="url(#SVGID_00000178917778810020225940000013135264324524137395_)"/></g><g><path d="m396.036 268.641c10.833 0 21.22 1.904 30.85 5.389v-23.882c0-6.66-5.399-12.059-12.059-12.059h-37.583c-6.66 0-12.059 5.399-12.059 12.059v23.882c9.631-3.486 20.018-5.389 30.851-5.389z" fill="url(#SVGID_00000014600547820617109700000011308642493814626488_)"/><path d="m396.036 449.91c-10.833 0-21.22-1.904-30.85-5.389v23.882c0 6.66 5.399 12.059 12.059 12.059h37.583c6.66 0 12.059-5.399 12.059-12.059v-23.882c-9.63 3.485-20.018 5.389-30.851 5.389z" fill="url(#SVGID_00000072985558613260575210000003002419631785340062_)"/><path d="m396.036 449.91c-10.833 0-21.22-1.904-30.85-5.389v23.882c0 6.66 5.399 12.059 12.059 12.059h37.583c6.66 0 12.059-5.399 12.059-12.059v-23.882c-9.63 3.485-20.018 5.389-30.851 5.389z" fill="url(#SVGID_00000174589326202788040560000011312309637039682488_)"/></g><g><path d="m337.66 289.949-20.706-11.955c-5.768-3.33-13.143-1.354-16.473 4.414l-18.792 32.548c-3.33 5.768-1.354 13.143 4.414 16.473l20.689 11.945c3.773-21.308 14.991-40.042 30.868-53.425z" fill="url(#SVGID_00000158728617571271236680000005111295658563425209_)"/><path d="m505.968 387.122-20.689-11.945c-3.771 21.308-14.99 40.042-30.867 53.425l20.706 11.955c5.768 3.33 13.143 1.354 16.473-4.414l18.792-32.548c3.329-5.768 1.353-13.143-4.415-16.473z" fill="url(#SVGID_00000173881253805305542060000003235504134780421545_)"/><path d="m505.968 387.122-20.689-11.945c-3.771 21.308-14.99 40.042-30.867 53.425l20.706 11.955c5.768 3.33 13.143 1.354 16.473-4.414l18.792-32.548c3.329-5.768 1.353-13.143-4.415-16.473z" fill="url(#SVGID_00000039851817953695726040000017606517545447482530_)"/></g></g></g></g><g/><g/><g/><g/><g/><g/><g/><g/><g/><g/><g/><g/><g/><g/><g/></svg>