<svg id="Capa_1" enable-background="new 0 0 510 510" height="512" viewBox="0 0 510 510" width="512" xmlns="http://www.w3.org/2000/svg" xmlns:xlink="http://www.w3.org/1999/xlink"><linearGradient id="SVGID_1_" gradientUnits="userSpaceOnUse" x1="0" x2="322.945" y1="184.353" y2="184.353"><stop offset="0" stop-color="#18cefb"/><stop offset="1" stop-color="#4a97f6"/></linearGradient><linearGradient id="SVGID_2_" gradientUnits="userSpaceOnUse" x1="290.321" x2="-59.559" y1="231.496" y2="-47.575"><stop offset="0" stop-color="#4a97f6" stop-opacity="0"/><stop offset=".5881" stop-color="#1e7ad1" stop-opacity=".588"/><stop offset="1" stop-color="#0469bb"/></linearGradient><linearGradient id="lg1"><stop offset="0" stop-color="#9b62cd"/><stop offset=".3003" stop-color="#985dcb"/><stop offset=".6716" stop-color="#8f4ec7"/><stop offset="1" stop-color="#833ac1"/></linearGradient><linearGradient id="SVGID_3_" gradientUnits="userSpaceOnUse" x1="161.472" x2="161.472" xlink:href="#lg1" y1="320.704" y2="241.02"/><linearGradient id="SVGID_4_" gradientUnits="userSpaceOnUse" x1="78.864" x2="113.395" xlink:href="#lg1" y1="115.571" y2="150.102"/><linearGradient id="lg2"><stop offset="0" stop-color="#662d90" stop-opacity="0"/><stop offset=".3052" stop-color="#632d8c" stop-opacity=".305"/><stop offset=".5953" stop-color="#5b2d81" stop-opacity=".595"/><stop offset=".8785" stop-color="#4d2d6e" stop-opacity=".879"/><stop offset="1" stop-color="#452d63"/></linearGradient><linearGradient id="SVGID_5_" gradientUnits="userSpaceOnUse" x1="89.766" x2="126.414" xlink:href="#lg2" y1="135.765" y2="67.605"/><linearGradient id="SVGID_6_" gradientUnits="userSpaceOnUse" x1="224.13" x2="258.661" xlink:href="#lg1" y1="115.571" y2="150.102"/><linearGradient id="SVGID_7_" gradientUnits="userSpaceOnUse" x1="235.031" x2="271.679" xlink:href="#lg2" y1="135.765" y2="67.605"/><linearGradient id="SVGID_8_" gradientUnits="userSpaceOnUse" x1="187.055" x2="510" y1="325.647" y2="325.647"><stop offset="0" stop-color="#ff7044"/><stop offset="1" stop-color="#f82814"/></linearGradient><linearGradient id="SVGID_9_" gradientUnits="userSpaceOnUse" x1="477.377" x2="127.497" y1="372.791" y2="93.72"><stop offset="0" stop-color="#f82814" stop-opacity="0"/><stop offset="1" stop-color="#c0272d"/></linearGradient><linearGradient id="lg3"><stop offset="0" stop-color="#ffd945"/><stop offset=".3043" stop-color="#ffcd3e"/><stop offset=".8558" stop-color="#ffad2b"/><stop offset="1" stop-color="#ffa325"/></linearGradient><linearGradient id="SVGID_10_" gradientUnits="userSpaceOnUse" x1="348.528" x2="348.528" xlink:href="#lg3" y1="421.768" y2="366.013"/><linearGradient id="SVGID_11_" gradientUnits="userSpaceOnUse" x1="265.919" x2="300.451" xlink:href="#lg3" y1="256.865" y2="291.397"/><linearGradient id="lg4"><stop offset="0" stop-color="#e87264" stop-opacity="0"/><stop offset=".3529" stop-color="#ed725d" stop-opacity=".353"/><stop offset=".8514" stop-color="#fa704b" stop-opacity=".851"/><stop offset="1" stop-color="#ff7044"/></linearGradient><linearGradient id="SVGID_12_" gradientUnits="userSpaceOnUse" x1="276.821" x2="313.469" xlink:href="#lg4" y1="277.059" y2="208.899"/><linearGradient id="SVGID_13_" gradientUnits="userSpaceOnUse" x1="411.185" x2="445.716" xlink:href="#lg3" y1="256.865" y2="291.397"/><linearGradient id="SVGID_14_" gradientUnits="userSpaceOnUse" x1="422.086" x2="458.734" xlink:href="#lg4" y1="277.059" y2="208.899"/><g><g><g><path d="m280.349 3.812c21.507-5.687 42.596 10.38 42.596 32.626v134.165c0 72.323-38.695 139.105-101.424 175.093l-14.203 8.136c-28.393 16.286-63.298 16.286-91.691 0l-14.203-8.136c-62.729-35.988-101.424-102.771-101.424-175.093v-134.165c0-22.246 21.089-38.313 42.596-32.626 33.141 8.763 74.292 13.954 118.877 13.954s85.735-5.191 118.876-13.954z" fill="url(#SVGID_1_)"/><path d="m207.318 353.832 14.203-8.136c62.728-35.988 101.424-102.77 101.424-175.093v-134.165c0-22.246-21.089-38.313-42.596-32.626-33.141 8.763-74.292 13.954-118.877 13.954v348.28c15.825 0 31.649-4.071 45.846-12.214z" fill="url(#SVGID_2_)"/></g><path d="m161.472 262.756c34.555 0 59.356 10.573 74.043 19.403 6.679 4.015 14.695-2.593 12.044-9.921-11.154-30.832-45.476-53.286-86.087-53.286s-74.933 22.454-86.087 53.286c-2.651 7.328 5.366 13.936 12.044 9.921 14.688-8.83 39.489-19.403 74.043-19.403z" fill="url(#SVGID_3_)"/><g><g><g><path d="m115.501 125.547c0 14.725-11.937 26.662-26.662 26.662s-26.662-11.937-26.662-26.662 11.937-26.662 26.662-26.662c14.726 0 26.662 11.937 26.662 26.662z" fill="url(#SVGID_4_)"/><path d="m100.766 101.697c1.798 3.589 2.812 7.639 2.812 11.926 0 14.725-11.937 26.662-26.662 26.662-4.287 0-8.338-1.014-11.927-2.812 4.377 8.737 13.412 14.735 23.85 14.735 14.725 0 26.662-11.937 26.662-26.662 0-10.437-5.998-19.472-14.735-23.849z" fill="url(#SVGID_5_)"/></g></g><g><g><path d="m260.767 125.547c0 14.725-11.937 26.662-26.662 26.662s-26.662-11.937-26.662-26.662 11.937-26.662 26.662-26.662 26.662 11.937 26.662 26.662z" fill="url(#SVGID_6_)"/><path d="m246.032 101.697c1.798 3.589 2.812 7.639 2.812 11.926 0 14.725-11.937 26.662-26.662 26.662-4.287 0-8.338-1.014-11.927-2.812 4.377 8.737 13.412 14.735 23.85 14.735 14.725 0 26.662-11.937 26.662-26.662 0-10.437-5.999-19.472-14.735-23.849z" fill="url(#SVGID_7_)"/></g></g></g></g><g><g><path d="m467.404 145.106c21.507-5.686 42.596 10.38 42.596 32.626v134.165c0 72.323-38.695 139.105-101.424 175.093l-14.203 8.136c-28.393 16.286-63.298 16.286-91.691 0l-14.203-8.136c-62.728-35.988-101.424-102.77-101.424-175.093v-134.165c0-22.246 21.089-38.312 42.596-32.626 33.141 8.763 74.292 13.954 118.877 13.954s85.736-5.191 118.876-13.954z" fill="url(#SVGID_8_)"/><path d="m394.373 495.126 14.203-8.136c62.729-35.988 101.424-102.771 101.424-175.093v-134.165c0-22.246-21.089-38.313-42.596-32.626-33.141 8.763-74.292 13.954-118.877 13.954v348.28c15.825 0 31.65-4.071 45.846-12.214z" fill="url(#SVGID_9_)"/></g><path d="m348.528 380.864c34.555 0 59.356-10.573 74.043-19.403 6.679-4.015 14.695 2.593 12.044 9.921-11.154 30.832-45.476 53.286-86.087 53.286s-74.933-22.454-86.087-53.286c-2.651-7.328 5.366-13.936 12.044-9.921 14.687 8.831 39.488 19.403 74.043 19.403z" fill="url(#SVGID_10_)"/><g><g><g><path d="m302.557 266.841c0 14.725-11.937 26.661-26.662 26.661s-26.662-11.937-26.662-26.661c0-14.725 11.937-26.662 26.662-26.662s26.662 11.937 26.662 26.662z" fill="url(#SVGID_11_)"/><path d="m287.821 242.991c1.798 3.589 2.812 7.639 2.812 11.926 0 14.725-11.937 26.662-26.662 26.662-4.287 0-8.338-1.014-11.927-2.812 4.377 8.737 13.412 14.735 23.85 14.735 14.725 0 26.662-11.937 26.662-26.661.001-10.437-5.998-19.472-14.735-23.85z" fill="url(#SVGID_12_)"/></g></g><g><g><path d="m447.822 266.841c0 14.725-11.937 26.661-26.662 26.661s-26.662-11.937-26.662-26.661c0-14.725 11.937-26.662 26.662-26.662s26.662 11.937 26.662 26.662z" fill="url(#SVGID_13_)"/><path d="m433.087 242.991c1.798 3.589 2.812 7.639 2.812 11.926 0 14.725-11.937 26.662-26.662 26.662-4.287 0-8.338-1.014-11.927-2.812 4.377 8.737 13.412 14.735 23.85 14.735 14.725 0 26.662-11.937 26.662-26.661 0-10.437-5.999-19.472-14.735-23.85z" fill="url(#SVGID_14_)"/></g></g></g></g></g></svg>